<svg width="428" height="215" viewBox="0 0 428 215" fill="none" xmlns="http://www.w3.org/2000/svg">
<g clip-path="url(#clip0_126_4367)">
<rect width="428" height="215" fill="url(#paint0_linear_126_4367)"/>
<g filter="url(#filter0_f_126_4367)">
<path d="M-10.9397 194.365C29.0644 209.093 122.527 233.707 176.346 214.329C243.619 190.107 258.565 136.548 351.673 134.127C444.781 131.707 480.083 149.992 518.093 106.481" stroke="white" stroke-width="0.25"/>
</g>
<g filter="url(#filter1_f_126_4367)">
<path d="M-8.66469 -42.3253C28.1027 0.544107 115.207 88.4749 169.486 97.2429C237.334 108.203 258.326 50.5212 348.409 104.502C438.492 158.482 470.287 202.911 512.287 171.887" stroke="white" stroke-width="0.25"/>
</g>
<g filter="url(#filter2_f_126_4367)">
<path d="M472.854 123.083C434.009 136.027 342.662 161.012 288.03 157.395C219.739 152.874 201.65 126.017 109.018 136.45C16.3862 146.884 -17.5716 161.144 -57.9632 142.585" stroke="white" stroke-width="0.25"/>
</g>
<path opacity="0.75" d="M428 0H0V215H428V0Z" fill="url(#paint1_linear_126_4367)"/>
<path d="M96.1737 39.364V47.968C96.1737 49.3 95.7957 50.326 95.0397 51.046C94.2957 51.766 93.2877 52.126 92.0157 52.126C90.6837 52.126 89.6157 51.748 88.8117 50.992C88.0077 50.236 87.6057 49.162 87.6057 47.77H90.6657C90.6657 48.298 90.7737 48.7 90.9897 48.976C91.2057 49.24 91.5177 49.372 91.9257 49.372C92.2977 49.372 92.5857 49.252 92.7897 49.012C92.9937 48.772 93.0957 48.424 93.0957 47.968V39.364H96.1737ZM98.0479 46.96C98.0479 45.928 98.2399 45.022 98.6239 44.242C99.0199 43.462 99.5539 42.862 100.226 42.442C100.898 42.022 101.648 41.812 102.476 41.812C103.184 41.812 103.802 41.956 104.33 42.244C104.87 42.532 105.284 42.91 105.572 43.378V41.956H108.65V52H105.572V50.578C105.272 51.046 104.852 51.424 104.312 51.712C103.784 52 103.166 52.144 102.458 52.144C101.642 52.144 100.898 51.934 100.226 51.514C99.5539 51.082 99.0199 50.476 98.6239 49.696C98.2399 48.904 98.0479 47.992 98.0479 46.96ZM105.572 46.978C105.572 46.21 105.356 45.604 104.924 45.16C104.504 44.716 103.988 44.494 103.376 44.494C102.764 44.494 102.242 44.716 101.81 45.16C101.39 45.592 101.18 46.192 101.18 46.96C101.18 47.728 101.39 48.34 101.81 48.796C102.242 49.24 102.764 49.462 103.376 49.462C103.988 49.462 104.504 49.24 104.924 48.796C105.356 48.352 105.572 47.746 105.572 46.978ZM105.806 39.454L101.468 41.272V39.148L105.806 37.06V39.454ZM118.777 52.144C117.901 52.144 117.121 51.994 116.437 51.694C115.753 51.394 115.213 50.986 114.817 50.47C114.421 49.942 114.199 49.354 114.151 48.706H117.193C117.229 49.054 117.391 49.336 117.679 49.552C117.967 49.768 118.321 49.876 118.741 49.876C119.125 49.876 119.419 49.804 119.623 49.66C119.839 49.504 119.947 49.306 119.947 49.066C119.947 48.778 119.797 48.568 119.497 48.436C119.197 48.292 118.711 48.136 118.039 47.968C117.319 47.8 116.719 47.626 116.239 47.446C115.759 47.254 115.345 46.96 114.997 46.564C114.649 46.156 114.475 45.61 114.475 44.926C114.475 44.35 114.631 43.828 114.943 43.36C115.267 42.88 115.735 42.502 116.347 42.226C116.971 41.95 117.709 41.812 118.561 41.812C119.821 41.812 120.811 42.124 121.531 42.748C122.263 43.372 122.683 44.2 122.791 45.232H119.947C119.899 44.884 119.743 44.608 119.479 44.404C119.227 44.2 118.891 44.098 118.471 44.098C118.111 44.098 117.835 44.17 117.643 44.314C117.451 44.446 117.355 44.632 117.355 44.872C117.355 45.16 117.505 45.376 117.805 45.52C118.117 45.664 118.597 45.808 119.245 45.952C119.989 46.144 120.595 46.336 121.063 46.528C121.531 46.708 121.939 47.008 122.287 47.428C122.647 47.836 122.833 48.388 122.845 49.084C122.845 49.672 122.677 50.2 122.341 50.668C122.017 51.124 121.543 51.484 120.919 51.748C120.307 52.012 119.593 52.144 118.777 52.144ZM124.116 46.96C124.116 45.928 124.308 45.022 124.692 44.242C125.088 43.462 125.622 42.862 126.294 42.442C126.966 42.022 127.716 41.812 128.544 41.812C129.252 41.812 129.87 41.956 130.398 42.244C130.938 42.532 131.352 42.91 131.64 43.378V41.956H134.718V52H131.64V50.578C131.34 51.046 130.92 51.424 130.38 51.712C129.852 52 129.234 52.144 128.526 52.144C127.71 52.144 126.966 51.934 126.294 51.514C125.622 51.082 125.088 50.476 124.692 49.696C124.308 48.904 124.116 47.992 124.116 46.96ZM131.64 46.978C131.64 46.21 131.424 45.604 130.992 45.16C130.572 44.716 130.056 44.494 129.444 44.494C128.832 44.494 128.31 44.716 127.878 45.16C127.458 45.592 127.248 46.192 127.248 46.96C127.248 47.728 127.458 48.34 127.878 48.796C128.31 49.24 128.832 49.462 129.444 49.462C130.056 49.462 130.572 49.24 130.992 48.796C131.424 48.352 131.64 47.746 131.64 46.978ZM140.023 43.378C140.311 42.91 140.725 42.532 141.265 42.244C141.805 41.956 142.423 41.812 143.119 41.812C143.947 41.812 144.697 42.022 145.369 42.442C146.041 42.862 146.569 43.462 146.953 44.242C147.349 45.022 147.547 45.928 147.547 46.96C147.547 47.992 147.349 48.904 146.953 49.696C146.569 50.476 146.041 51.082 145.369 51.514C144.697 51.934 143.947 52.144 143.119 52.144C142.411 52.144 141.793 52.006 141.265 51.73C140.737 51.442 140.323 51.064 140.023 50.596V52H136.945V38.68H140.023V43.378ZM144.415 46.96C144.415 46.192 144.199 45.592 143.767 45.16C143.347 44.716 142.825 44.494 142.201 44.494C141.589 44.494 141.067 44.716 140.635 45.16C140.215 45.604 140.005 46.21 140.005 46.978C140.005 47.746 140.215 48.352 140.635 48.796C141.067 49.24 141.589 49.462 142.201 49.462C142.813 49.462 143.335 49.24 143.767 48.796C144.199 48.34 144.415 47.728 144.415 46.96ZM158.63 46.816C158.63 47.104 158.612 47.404 158.576 47.716H151.61C151.658 48.34 151.856 48.82 152.204 49.156C152.564 49.48 153.002 49.642 153.518 49.642C154.286 49.642 154.82 49.318 155.12 48.67H158.396C158.228 49.33 157.922 49.924 157.478 50.452C157.046 50.98 156.5 51.394 155.84 51.694C155.18 51.994 154.442 52.144 153.626 52.144C152.642 52.144 151.766 51.934 150.998 51.514C150.23 51.094 149.63 50.494 149.198 49.714C148.766 48.934 148.55 48.022 148.55 46.978C148.55 45.934 148.76 45.022 149.18 44.242C149.612 43.462 150.212 42.862 150.98 42.442C151.748 42.022 152.63 41.812 153.626 41.812C154.598 41.812 155.462 42.016 156.218 42.424C156.974 42.832 157.562 43.414 157.982 44.17C158.414 44.926 158.63 45.808 158.63 46.816ZM155.48 46.006C155.48 45.478 155.3 45.058 154.94 44.746C154.58 44.434 154.13 44.278 153.59 44.278C153.074 44.278 152.636 44.428 152.276 44.728C151.928 45.028 151.712 45.454 151.628 46.006H155.48ZM167.146 43.378C167.446 42.91 167.86 42.532 168.388 42.244C168.916 41.956 169.534 41.812 170.242 41.812C171.07 41.812 171.82 42.022 172.492 42.442C173.164 42.862 173.692 43.462 174.076 44.242C174.472 45.022 174.67 45.928 174.67 46.96C174.67 47.992 174.472 48.904 174.076 49.696C173.692 50.476 173.164 51.082 172.492 51.514C171.82 51.934 171.07 52.144 170.242 52.144C169.546 52.144 168.928 52 168.388 51.712C167.86 51.424 167.446 51.052 167.146 50.596V56.788H164.068V41.956H167.146V43.378ZM171.538 46.96C171.538 46.192 171.322 45.592 170.89 45.16C170.47 44.716 169.948 44.494 169.324 44.494C168.712 44.494 168.19 44.716 167.758 45.16C167.338 45.604 167.128 46.21 167.128 46.978C167.128 47.746 167.338 48.352 167.758 48.796C168.19 49.24 168.712 49.462 169.324 49.462C169.936 49.462 170.458 49.24 170.89 48.796C171.322 48.34 171.538 47.728 171.538 46.96ZM180.857 52.144C179.873 52.144 178.985 51.934 178.193 51.514C177.413 51.094 176.795 50.494 176.339 49.714C175.895 48.934 175.673 48.022 175.673 46.978C175.673 45.946 175.901 45.04 176.357 44.26C176.813 43.468 177.437 42.862 178.229 42.442C179.021 42.022 179.909 41.812 180.893 41.812C181.877 41.812 182.765 42.022 183.557 42.442C184.349 42.862 184.973 43.468 185.429 44.26C185.885 45.04 186.113 45.946 186.113 46.978C186.113 48.01 185.879 48.922 185.411 49.714C184.955 50.494 184.325 51.094 183.521 51.514C182.729 51.934 181.841 52.144 180.857 52.144ZM180.857 49.48C181.445 49.48 181.943 49.264 182.351 48.832C182.771 48.4 182.981 47.782 182.981 46.978C182.981 46.174 182.777 45.556 182.369 45.124C181.973 44.692 181.481 44.476 180.893 44.476C180.293 44.476 179.795 44.692 179.399 45.124C179.003 45.544 178.805 46.162 178.805 46.978C178.805 47.782 178.997 48.4 179.381 48.832C179.777 49.264 180.269 49.48 180.857 49.48ZM190.824 43.63C191.184 43.078 191.634 42.646 192.174 42.334C192.714 42.01 193.314 41.848 193.974 41.848V45.106H193.128C192.36 45.106 191.784 45.274 191.4 45.61C191.016 45.934 190.824 46.51 190.824 47.338V52H187.746V41.956H190.824V43.63ZM203.832 52.144C202.848 52.144 201.96 51.934 201.168 51.514C200.388 51.094 199.77 50.494 199.314 49.714C198.87 48.934 198.648 48.022 198.648 46.978C198.648 45.946 198.876 45.04 199.332 44.26C199.788 43.468 200.412 42.862 201.204 42.442C201.996 42.022 202.884 41.812 203.868 41.812C204.852 41.812 205.74 42.022 206.532 42.442C207.324 42.862 207.948 43.468 208.404 44.26C208.86 45.04 209.088 45.946 209.088 46.978C209.088 48.01 208.854 48.922 208.386 49.714C207.93 50.494 207.3 51.094 206.496 51.514C205.704 51.934 204.816 52.144 203.832 52.144ZM203.832 49.48C204.42 49.48 204.918 49.264 205.326 48.832C205.746 48.4 205.956 47.782 205.956 46.978C205.956 46.174 205.752 45.556 205.344 45.124C204.948 44.692 204.456 44.476 203.868 44.476C203.268 44.476 202.77 44.692 202.374 45.124C201.978 45.544 201.78 46.162 201.78 46.978C201.78 47.782 201.972 48.4 202.356 48.832C202.752 49.264 203.244 49.48 203.832 49.48ZM216.84 41.848C218.016 41.848 218.952 42.232 219.648 43C220.356 43.756 220.71 44.8 220.71 46.132V52H217.65V46.546C217.65 45.874 217.476 45.352 217.128 44.98C216.78 44.608 216.312 44.422 215.724 44.422C215.136 44.422 214.668 44.608 214.32 44.98C213.972 45.352 213.798 45.874 213.798 46.546V52H210.72V41.956H213.798V43.288C214.11 42.844 214.53 42.496 215.058 42.244C215.586 41.98 216.18 41.848 216.84 41.848ZM222.237 46.96C222.237 45.928 222.429 45.022 222.813 44.242C223.209 43.462 223.743 42.862 224.415 42.442C225.087 42.022 225.837 41.812 226.665 41.812C227.325 41.812 227.925 41.95 228.465 42.226C229.017 42.502 229.449 42.874 229.761 43.342V38.68H232.839V52H229.761V50.56C229.473 51.04 229.059 51.424 228.519 51.712C227.991 52 227.373 52.144 226.665 52.144C225.837 52.144 225.087 51.934 224.415 51.514C223.743 51.082 223.209 50.476 222.813 49.696C222.429 48.904 222.237 47.992 222.237 46.96ZM229.761 46.978C229.761 46.21 229.545 45.604 229.113 45.16C228.693 44.716 228.177 44.494 227.565 44.494C226.953 44.494 226.431 44.716 225.999 45.16C225.579 45.592 225.369 46.192 225.369 46.96C225.369 47.728 225.579 48.34 225.999 48.796C226.431 49.24 226.953 49.462 227.565 49.462C228.177 49.462 228.693 49.24 229.113 48.796C229.545 48.352 229.761 47.746 229.761 46.978ZM244.534 46.816C244.534 47.104 244.516 47.404 244.48 47.716H237.514C237.562 48.34 237.76 48.82 238.108 49.156C238.468 49.48 238.906 49.642 239.422 49.642C240.19 49.642 240.724 49.318 241.024 48.67H244.3C244.132 49.33 243.826 49.924 243.382 50.452C242.95 50.98 242.404 51.394 241.744 51.694C241.084 51.994 240.346 52.144 239.53 52.144C238.546 52.144 237.67 51.934 236.902 51.514C236.134 51.094 235.534 50.494 235.102 49.714C234.67 48.934 234.454 48.022 234.454 46.978C234.454 45.934 234.664 45.022 235.084 44.242C235.516 43.462 236.116 42.862 236.884 42.442C237.652 42.022 238.534 41.812 239.53 41.812C240.502 41.812 241.366 42.016 242.122 42.424C242.878 42.832 243.466 43.414 243.886 44.17C244.318 44.926 244.534 45.808 244.534 46.816ZM241.384 46.006C241.384 45.478 241.204 45.058 240.844 44.746C240.484 44.434 240.034 44.278 239.494 44.278C238.978 44.278 238.54 44.428 238.18 44.728C237.832 45.028 237.616 45.454 237.532 46.006H241.384ZM249.36 46.978C249.36 45.934 249.57 45.022 249.99 44.242C250.422 43.462 251.016 42.862 251.772 42.442C252.54 42.022 253.416 41.812 254.4 41.812C255.66 41.812 256.71 42.142 257.55 42.802C258.402 43.462 258.96 44.392 259.224 45.592H255.948C255.672 44.824 255.138 44.44 254.346 44.44C253.782 44.44 253.332 44.662 252.996 45.106C252.66 45.538 252.492 46.162 252.492 46.978C252.492 47.794 252.66 48.424 252.996 48.868C253.332 49.3 253.782 49.516 254.346 49.516C255.138 49.516 255.672 49.132 255.948 48.364H259.224C258.96 49.54 258.402 50.464 257.55 51.136C256.698 51.808 255.648 52.144 254.4 52.144C253.416 52.144 252.54 51.934 251.772 51.514C251.016 51.094 250.422 50.494 249.99 49.714C249.57 48.934 249.36 48.022 249.36 46.978ZM265.443 52.144C264.459 52.144 263.571 51.934 262.779 51.514C261.999 51.094 261.381 50.494 260.925 49.714C260.481 48.934 260.259 48.022 260.259 46.978C260.259 45.946 260.487 45.04 260.943 44.26C261.399 43.468 262.023 42.862 262.815 42.442C263.607 42.022 264.495 41.812 265.479 41.812C266.463 41.812 267.351 42.022 268.143 42.442C268.935 42.862 269.559 43.468 270.015 44.26C270.471 45.04 270.699 45.946 270.699 46.978C270.699 48.01 270.465 48.922 269.997 49.714C269.541 50.494 268.911 51.094 268.107 51.514C267.315 51.934 266.427 52.144 265.443 52.144ZM265.443 49.48C266.031 49.48 266.529 49.264 266.937 48.832C267.357 48.4 267.567 47.782 267.567 46.978C267.567 46.174 267.363 45.556 266.955 45.124C266.559 44.692 266.067 44.476 265.479 44.476C264.879 44.476 264.381 44.692 263.985 45.124C263.589 45.544 263.391 46.162 263.391 46.978C263.391 47.782 263.583 48.4 263.967 48.832C264.363 49.264 264.855 49.48 265.443 49.48ZM285.148 41.848C286.396 41.848 287.386 42.226 288.118 42.982C288.862 43.738 289.234 44.788 289.234 46.132V52H286.174V46.546C286.174 45.898 286 45.4 285.652 45.052C285.316 44.692 284.848 44.512 284.248 44.512C283.648 44.512 283.174 44.692 282.826 45.052C282.49 45.4 282.322 45.898 282.322 46.546V52H279.262V46.546C279.262 45.898 279.088 45.4 278.74 45.052C278.404 44.692 277.936 44.512 277.336 44.512C276.736 44.512 276.262 44.692 275.914 45.052C275.578 45.4 275.41 45.898 275.41 46.546V52H272.332V41.956H275.41V43.216C275.722 42.796 276.13 42.466 276.634 42.226C277.138 41.974 277.708 41.848 278.344 41.848C279.1 41.848 279.772 42.01 280.36 42.334C280.96 42.658 281.428 43.12 281.764 43.72C282.112 43.168 282.586 42.718 283.186 42.37C283.786 42.022 284.44 41.848 285.148 41.848ZM300.855 46.816C300.855 47.104 300.837 47.404 300.801 47.716H293.835C293.883 48.34 294.081 48.82 294.429 49.156C294.789 49.48 295.227 49.642 295.743 49.642C296.511 49.642 297.045 49.318 297.345 48.67H300.621C300.453 49.33 300.147 49.924 299.703 50.452C299.271 50.98 298.725 51.394 298.065 51.694C297.405 51.994 296.667 52.144 295.851 52.144C294.867 52.144 293.991 51.934 293.223 51.514C292.455 51.094 291.855 50.494 291.423 49.714C290.991 48.934 290.775 48.022 290.775 46.978C290.775 45.934 290.985 45.022 291.405 44.242C291.837 43.462 292.437 42.862 293.205 42.442C293.973 42.022 294.855 41.812 295.851 41.812C296.823 41.812 297.687 42.016 298.443 42.424C299.199 42.832 299.787 43.414 300.207 44.17C300.639 44.926 300.855 45.808 300.855 46.816ZM297.705 46.006C297.705 45.478 297.525 45.058 297.165 44.746C296.805 44.434 296.355 44.278 295.815 44.278C295.299 44.278 294.861 44.428 294.501 44.728C294.153 45.028 293.937 45.454 293.853 46.006H297.705ZM306.852 49.516C307.644 49.516 308.178 49.132 308.454 48.364H311.73C311.502 49.384 311.046 50.218 310.362 50.866C309.678 51.514 308.826 51.916 307.806 52.072V52.738C308.43 52.738 308.976 52.906 309.444 53.242C309.912 53.59 310.146 54.106 310.146 54.79C310.146 55.474 309.9 55.99 309.408 56.338C308.916 56.698 308.328 56.878 307.644 56.878H304.872V55.186H307.23C307.47 55.186 307.65 55.15 307.77 55.078C307.89 55.006 307.95 54.886 307.95 54.718C307.95 54.55 307.89 54.43 307.77 54.358C307.65 54.298 307.47 54.268 307.23 54.268H305.952V52.072C304.716 51.88 303.726 51.334 302.982 50.434C302.238 49.522 301.866 48.37 301.866 46.978C301.866 45.934 302.076 45.022 302.496 44.242C302.928 43.462 303.522 42.862 304.278 42.442C305.046 42.022 305.922 41.812 306.906 41.812C308.166 41.812 309.216 42.142 310.056 42.802C310.908 43.462 311.466 44.392 311.73 45.592H308.454C308.178 44.824 307.644 44.44 306.852 44.44C306.288 44.44 305.838 44.662 305.502 45.106C305.166 45.538 304.998 46.162 304.998 46.978C304.998 47.794 305.166 48.424 305.502 48.868C305.838 49.3 306.288 49.516 306.852 49.516ZM312.765 46.96C312.765 45.928 312.957 45.022 313.341 44.242C313.737 43.462 314.271 42.862 314.943 42.442C315.615 42.022 316.365 41.812 317.193 41.812C317.901 41.812 318.519 41.956 319.047 42.244C319.587 42.532 320.001 42.91 320.289 43.378V41.956H323.367V52H320.289V50.578C319.989 51.046 319.569 51.424 319.029 51.712C318.501 52 317.883 52.144 317.175 52.144C316.359 52.144 315.615 51.934 314.943 51.514C314.271 51.082 313.737 50.476 313.341 49.696C312.957 48.904 312.765 47.992 312.765 46.96ZM320.289 46.978C320.289 46.21 320.073 45.604 319.641 45.16C319.221 44.716 318.705 44.494 318.093 44.494C317.481 44.494 316.959 44.716 316.527 45.16C316.107 45.592 315.897 46.192 315.897 46.96C315.897 47.728 316.107 48.34 316.527 48.796C316.959 49.24 317.481 49.462 318.093 49.462C318.705 49.462 319.221 49.24 319.641 48.796C320.073 48.352 320.289 47.746 320.289 46.978ZM328.672 43.63C329.032 43.078 329.482 42.646 330.022 42.334C330.562 42.01 331.162 41.848 331.822 41.848V45.106H330.976C330.208 45.106 329.632 45.274 329.248 45.61C328.864 45.934 328.672 46.51 328.672 47.338V52H325.594V41.956H328.672V43.63ZM336.983 38.662C338.267 38.662 339.293 38.998 340.061 39.67C340.841 40.342 341.231 41.29 341.231 42.514C341.231 43.642 340.859 44.524 340.115 45.16C339.383 45.784 338.411 46.102 337.199 46.114L337.109 47.464H334.409L334.319 44.116H335.399C336.323 44.116 337.025 44.002 337.505 43.774C337.997 43.546 338.243 43.132 338.243 42.532C338.243 42.112 338.129 41.782 337.901 41.542C337.673 41.302 337.355 41.182 336.947 41.182C336.515 41.182 336.179 41.308 335.939 41.56C335.699 41.8 335.579 42.13 335.579 42.55H332.681C332.657 41.818 332.807 41.158 333.131 40.57C333.467 39.982 333.959 39.52 334.607 39.184C335.267 38.836 336.059 38.662 336.983 38.662ZM335.795 52.144C335.255 52.144 334.811 51.988 334.463 51.676C334.127 51.352 333.959 50.956 333.959 50.488C333.959 50.008 334.127 49.606 334.463 49.282C334.811 48.958 335.255 48.796 335.795 48.796C336.323 48.796 336.755 48.958 337.091 49.282C337.439 49.606 337.613 50.008 337.613 50.488C337.613 50.956 337.439 51.352 337.091 51.676C336.755 51.988 336.323 52.144 335.795 52.144Z" fill="white"/>
<path d="M80.274 75.352V78.616H84.114V80.104H80.274V83.512H84.594V85H78.45V73.864H84.594V75.352H80.274ZM91.2886 76.04C91.982 76.04 92.6006 76.184 93.1446 76.472C93.6993 76.76 94.1313 77.1867 94.4406 77.752C94.75 78.3173 94.9046 79 94.9046 79.8V85H93.0966V80.072C93.0966 79.2827 92.8993 78.68 92.5046 78.264C92.11 77.8373 91.5713 77.624 90.8886 77.624C90.206 77.624 89.662 77.8373 89.2566 78.264C88.862 78.68 88.6646 79.2827 88.6646 80.072V85H86.8406V76.184H88.6646V77.192C88.9633 76.8293 89.342 76.5467 89.8006 76.344C90.27 76.1413 90.766 76.04 91.2886 76.04ZM96.6233 80.584C96.6233 79.6773 96.8046 78.8827 97.1673 78.2C97.5406 77.5067 98.0526 76.9733 98.7033 76.6C99.3539 76.2267 100.101 76.04 100.943 76.04C102.01 76.04 102.89 76.296 103.583 76.808C104.287 77.3093 104.762 78.0293 105.007 78.968H103.039C102.879 78.5307 102.623 78.1893 102.271 77.944C101.919 77.6987 101.477 77.576 100.943 77.576C100.197 77.576 99.5993 77.8427 99.1513 78.376C98.7139 78.8987 98.4953 79.6347 98.4953 80.584C98.4953 81.5333 98.7139 82.2747 99.1513 82.808C99.5993 83.3413 100.197 83.608 100.943 83.608C101.999 83.608 102.698 83.144 103.039 82.216H105.007C104.751 83.112 104.271 83.8267 103.567 84.36C102.863 84.8827 101.989 85.144 100.943 85.144C100.101 85.144 99.3539 84.9573 98.7033 84.584C98.0526 84.2 97.5406 83.6667 97.1673 82.984C96.8046 82.2907 96.6233 81.4907 96.6233 80.584ZM110.649 85.144C109.817 85.144 109.065 84.9573 108.393 84.584C107.721 84.2 107.193 83.6667 106.809 82.984C106.425 82.2907 106.233 81.4907 106.233 80.584C106.233 79.688 106.43 78.8933 106.825 78.2C107.22 77.5067 107.758 76.9733 108.441 76.6C109.124 76.2267 109.886 76.04 110.729 76.04C111.572 76.04 112.334 76.2267 113.017 76.6C113.7 76.9733 114.238 77.5067 114.633 78.2C115.028 78.8933 115.225 79.688 115.225 80.584C115.225 81.48 115.022 82.2747 114.617 82.968C114.212 83.6613 113.657 84.2 112.953 84.584C112.26 84.9573 111.492 85.144 110.649 85.144ZM110.649 83.56C111.118 83.56 111.556 83.448 111.961 83.224C112.377 83 112.713 82.664 112.969 82.216C113.225 81.768 113.353 81.224 113.353 80.584C113.353 79.944 113.23 79.4053 112.985 78.968C112.74 78.52 112.414 78.184 112.009 77.96C111.604 77.736 111.166 77.624 110.697 77.624C110.228 77.624 109.79 77.736 109.385 77.96C108.99 78.184 108.676 78.52 108.441 78.968C108.206 79.4053 108.089 79.944 108.089 80.584C108.089 81.5333 108.329 82.2693 108.809 82.792C109.3 83.304 109.913 83.56 110.649 83.56ZM121.476 76.04C122.169 76.04 122.788 76.184 123.332 76.472C123.887 76.76 124.319 77.1867 124.628 77.752C124.937 78.3173 125.092 79 125.092 79.8V85H123.284V80.072C123.284 79.2827 123.087 78.68 122.692 78.264C122.297 77.8373 121.759 77.624 121.076 77.624C120.393 77.624 119.849 77.8373 119.444 78.264C119.049 78.68 118.852 79.2827 118.852 80.072V85H117.028V76.184H118.852V77.192C119.151 76.8293 119.529 76.5467 119.988 76.344C120.457 76.1413 120.953 76.04 121.476 76.04ZM129.547 77.672V82.552C129.547 82.8827 129.621 83.1227 129.771 83.272C129.931 83.4107 130.197 83.48 130.571 83.48H131.691V85H130.251C129.429 85 128.8 84.808 128.363 84.424C127.925 84.04 127.707 83.416 127.707 82.552V77.672H126.667V76.184H127.707V73.992H129.547V76.184H131.691V77.672H129.547ZM135.196 77.464C135.463 77.016 135.815 76.6693 136.252 76.424C136.7 76.168 137.228 76.04 137.836 76.04V77.928H137.372C136.657 77.928 136.113 78.1093 135.74 78.472C135.377 78.8347 135.196 79.464 135.196 80.36V85H133.372V76.184H135.196V77.464ZM147.593 80.376C147.593 80.7067 147.571 81.0053 147.529 81.272H140.793C140.846 81.976 141.107 82.5413 141.577 82.968C142.046 83.3947 142.622 83.608 143.305 83.608C144.286 83.608 144.979 83.1973 145.385 82.376H147.352C147.086 83.1867 146.601 83.8533 145.897 84.376C145.203 84.888 144.339 85.144 143.305 85.144C142.462 85.144 141.705 84.9573 141.033 84.584C140.371 84.2 139.849 83.6667 139.465 82.984C139.091 82.2907 138.905 81.4907 138.905 80.584C138.905 79.6773 139.086 78.8827 139.449 78.2C139.822 77.5067 140.339 76.9733 141.001 76.6C141.673 76.2267 142.441 76.04 143.305 76.04C144.137 76.04 144.878 76.2213 145.529 76.584C146.179 76.9467 146.686 77.4587 147.049 78.12C147.411 78.7707 147.593 79.5227 147.593 80.376ZM145.689 79.8C145.678 79.128 145.438 78.5893 144.969 78.184C144.499 77.7787 143.918 77.576 143.225 77.576C142.595 77.576 142.057 77.7787 141.609 78.184C141.161 78.5787 140.894 79.1173 140.809 79.8H145.689ZM161.624 80.376C161.624 80.7067 161.602 81.0053 161.56 81.272H154.824C154.877 81.976 155.138 82.5413 155.608 82.968C156.077 83.3947 156.653 83.608 157.336 83.608C158.317 83.608 159.01 83.1973 159.416 82.376H161.384C161.117 83.1867 160.632 83.8533 159.928 84.376C159.234 84.888 158.37 85.144 157.336 85.144C156.493 85.144 155.736 84.9573 155.064 84.584C154.402 84.2 153.88 83.6667 153.496 82.984C153.122 82.2907 152.936 81.4907 152.936 80.584C152.936 79.6773 153.117 78.8827 153.48 78.2C153.853 77.5067 154.37 76.9733 155.032 76.6C155.704 76.2267 156.472 76.04 157.336 76.04C158.168 76.04 158.909 76.2213 159.56 76.584C160.21 76.9467 160.717 77.4587 161.08 78.12C161.442 78.7707 161.624 79.5227 161.624 80.376ZM159.72 79.8C159.709 79.128 159.469 78.5893 159 78.184C158.53 77.7787 157.949 77.576 157.256 77.576C156.626 77.576 156.088 77.7787 155.64 78.184C155.192 78.5787 154.925 79.1173 154.84 79.8H159.72ZM174.091 76.04C174.784 76.04 175.403 76.184 175.947 76.472C176.501 76.76 176.933 77.1867 177.243 77.752C177.563 78.3173 177.723 79 177.723 79.8V85H175.915V80.072C175.915 79.2827 175.717 78.68 175.323 78.264C174.928 77.8373 174.389 77.624 173.707 77.624C173.024 77.624 172.48 77.8373 172.075 78.264C171.68 78.68 171.483 79.2827 171.483 80.072V85H169.675V80.072C169.675 79.2827 169.477 78.68 169.083 78.264C168.688 77.8373 168.149 77.624 167.467 77.624C166.784 77.624 166.24 77.8373 165.835 78.264C165.44 78.68 165.243 79.2827 165.243 80.072V85H163.419V76.184H165.243V77.192C165.541 76.8293 165.92 76.5467 166.379 76.344C166.837 76.1413 167.328 76.04 167.851 76.04C168.555 76.04 169.184 76.1893 169.739 76.488C170.293 76.7867 170.72 77.2187 171.019 77.784C171.285 77.2507 171.701 76.8293 172.267 76.52C172.832 76.2 173.44 76.04 174.091 76.04ZM188.648 76.04C189.341 76.04 189.96 76.184 190.504 76.472C191.059 76.76 191.491 77.1867 191.8 77.752C192.109 78.3173 192.264 79 192.264 79.8V85H190.456V80.072C190.456 79.2827 190.259 78.68 189.864 78.264C189.469 77.8373 188.931 77.624 188.248 77.624C187.565 77.624 187.021 77.8373 186.616 78.264C186.221 78.68 186.024 79.2827 186.024 80.072V85H184.2V76.184H186.024V77.192C186.323 76.8293 186.701 76.5467 187.16 76.344C187.629 76.1413 188.125 76.04 188.648 76.04ZM198.415 85.144C197.583 85.144 196.831 84.9573 196.159 84.584C195.487 84.2 194.959 83.6667 194.575 82.984C194.191 82.2907 193.999 81.4907 193.999 80.584C193.999 79.688 194.196 78.8933 194.591 78.2C194.985 77.5067 195.524 76.9733 196.207 76.6C196.889 76.2267 197.652 76.04 198.495 76.04C199.337 76.04 200.1 76.2267 200.783 76.6C201.465 76.9733 202.004 77.5067 202.399 78.2C202.793 78.8933 202.991 79.688 202.991 80.584C202.991 81.48 202.788 82.2747 202.383 82.968C201.977 83.6613 201.423 84.2 200.719 84.584C200.025 84.9573 199.257 85.144 198.415 85.144ZM198.415 83.56C198.884 83.56 199.321 83.448 199.727 83.224C200.143 83 200.479 82.664 200.735 82.216C200.991 81.768 201.119 81.224 201.119 80.584C201.119 79.944 200.996 79.4053 200.751 78.968C200.505 78.52 200.18 78.184 199.775 77.96C199.369 77.736 198.932 77.624 198.463 77.624C197.993 77.624 197.556 77.736 197.151 77.96C196.756 78.184 196.441 78.52 196.207 78.968C195.972 79.4053 195.855 79.944 195.855 80.584C195.855 81.5333 196.095 82.2693 196.575 82.792C197.065 83.304 197.679 83.56 198.415 83.56ZM207.994 85.144C207.3 85.144 206.676 85.0213 206.122 84.776C205.578 84.52 205.146 84.1787 204.826 83.752C204.506 83.3147 204.335 82.8293 204.314 82.296H206.202C206.234 82.6693 206.41 82.984 206.73 83.24C207.06 83.4853 207.471 83.608 207.962 83.608C208.474 83.608 208.868 83.512 209.146 83.32C209.434 83.1173 209.578 82.8613 209.578 82.552C209.578 82.2213 209.418 81.976 209.098 81.816C208.788 81.656 208.292 81.48 207.61 81.288C206.948 81.1067 206.41 80.9307 205.994 80.76C205.578 80.5893 205.215 80.328 204.906 79.976C204.607 79.624 204.458 79.16 204.458 78.584C204.458 78.1147 204.596 77.688 204.874 77.304C205.151 76.9093 205.546 76.6 206.058 76.376C206.58 76.152 207.178 76.04 207.85 76.04C208.852 76.04 209.658 76.296 210.266 76.808C210.884 77.3093 211.215 77.9973 211.258 78.872H209.434C209.402 78.4773 209.242 78.1627 208.954 77.928C208.666 77.6933 208.276 77.576 207.786 77.576C207.306 77.576 206.938 77.6667 206.682 77.848C206.426 78.0293 206.298 78.2693 206.298 78.568C206.298 78.8027 206.383 79 206.554 79.16C206.724 79.32 206.932 79.448 207.178 79.544C207.423 79.6293 207.786 79.7413 208.266 79.88C208.906 80.0507 209.428 80.2267 209.834 80.408C210.25 80.5787 210.607 80.8347 210.906 81.176C211.204 81.5173 211.359 81.9707 211.37 82.536C211.37 83.0373 211.231 83.4853 210.954 83.88C210.676 84.2747 210.282 84.584 209.77 84.808C209.268 85.032 208.676 85.144 207.994 85.144ZM216.541 85.144C215.847 85.144 215.223 85.0213 214.669 84.776C214.125 84.52 213.693 84.1787 213.373 83.752C213.053 83.3147 212.882 82.8293 212.861 82.296H214.749C214.781 82.6693 214.957 82.984 215.277 83.24C215.607 83.4853 216.018 83.608 216.509 83.608C217.021 83.608 217.415 83.512 217.693 83.32C217.981 83.1173 218.125 82.8613 218.125 82.552C218.125 82.2213 217.965 81.976 217.645 81.816C217.335 81.656 216.839 81.48 216.157 81.288C215.495 81.1067 214.957 80.9307 214.541 80.76C214.125 80.5893 213.762 80.328 213.453 79.976C213.154 79.624 213.005 79.16 213.005 78.584C213.005 78.1147 213.143 77.688 213.421 77.304C213.698 76.9093 214.093 76.6 214.605 76.376C215.127 76.152 215.725 76.04 216.397 76.04C217.399 76.04 218.205 76.296 218.813 76.808C219.431 77.3093 219.762 77.9973 219.805 78.872H217.981C217.949 78.4773 217.789 78.1627 217.501 77.928C217.213 77.6933 216.823 77.576 216.333 77.576C215.853 77.576 215.485 77.6667 215.229 77.848C214.973 78.0293 214.845 78.2693 214.845 78.568C214.845 78.8027 214.93 79 215.101 79.16C215.271 79.32 215.479 79.448 215.725 79.544C215.97 79.6293 216.333 79.7413 216.813 79.88C217.453 80.0507 217.975 80.2267 218.381 80.408C218.797 80.5787 219.154 80.8347 219.453 81.176C219.751 81.5173 219.906 81.9707 219.917 82.536C219.917 83.0373 219.778 83.4853 219.501 83.88C219.223 84.2747 218.829 84.584 218.317 84.808C217.815 85.032 217.223 85.144 216.541 85.144ZM221.28 80.552C221.28 79.6667 221.461 78.8827 221.824 78.2C222.197 77.5173 222.698 76.9893 223.328 76.616C223.968 76.232 224.672 76.04 225.44 76.04C226.133 76.04 226.736 76.1787 227.248 76.456C227.77 76.7227 228.186 77.0587 228.496 77.464V76.184H230.336V85H228.496V83.688C228.186 84.104 227.765 84.4507 227.232 84.728C226.698 85.0053 226.09 85.144 225.408 85.144C224.65 85.144 223.957 84.952 223.328 84.568C222.698 84.1733 222.197 83.6293 221.824 82.936C221.461 82.232 221.28 81.4373 221.28 80.552ZM228.496 80.584C228.496 79.976 228.368 79.448 228.112 79C227.866 78.552 227.541 78.2107 227.136 77.976C226.73 77.7413 226.293 77.624 225.824 77.624C225.354 77.624 224.917 77.7413 224.512 77.976C224.106 78.2 223.776 78.536 223.52 78.984C223.274 79.4213 223.152 79.944 223.152 80.552C223.152 81.16 223.274 81.6933 223.52 82.152C223.776 82.6107 224.106 82.9627 224.512 83.208C224.928 83.4427 225.365 83.56 225.824 83.56C226.293 83.56 226.73 83.4427 227.136 83.208C227.541 82.9733 227.866 82.632 228.112 82.184C228.368 81.7253 228.496 81.192 228.496 80.584ZM244.968 80.376C244.968 80.7067 244.946 81.0053 244.904 81.272H238.168C238.221 81.976 238.482 82.5413 238.952 82.968C239.421 83.3947 239.997 83.608 240.68 83.608C241.661 83.608 242.354 83.1973 242.76 82.376H244.727C244.461 83.1867 243.976 83.8533 243.272 84.376C242.578 84.888 241.714 85.144 240.68 85.144C239.837 85.144 239.08 84.9573 238.408 84.584C237.746 84.2 237.224 83.6667 236.84 82.984C236.466 82.2907 236.28 81.4907 236.28 80.584C236.28 79.6773 236.461 78.8827 236.824 78.2C237.197 77.5067 237.714 76.9733 238.376 76.6C239.048 76.2267 239.816 76.04 240.68 76.04C241.512 76.04 242.253 76.2213 242.904 76.584C243.554 76.9467 244.061 77.4587 244.424 78.12C244.786 78.7707 244.968 79.5227 244.968 80.376ZM243.064 79.8C243.053 79.128 242.813 78.5893 242.344 78.184C241.874 77.7787 241.293 77.576 240.6 77.576C239.97 77.576 239.432 77.7787 238.984 78.184C238.536 78.5787 238.269 79.1173 238.184 79.8H243.064ZM249.963 85.144C249.269 85.144 248.645 85.0213 248.091 84.776C247.547 84.52 247.115 84.1787 246.795 83.752C246.475 83.3147 246.304 82.8293 246.283 82.296H248.171C248.203 82.6693 248.379 82.984 248.699 83.24C249.029 83.4853 249.44 83.608 249.931 83.608C250.443 83.608 250.837 83.512 251.115 83.32C251.403 83.1173 251.547 82.8613 251.547 82.552C251.547 82.2213 251.387 81.976 251.067 81.816C250.757 81.656 250.261 81.48 249.579 81.288C248.917 81.1067 248.379 80.9307 247.963 80.76C247.547 80.5893 247.184 80.328 246.875 79.976C246.576 79.624 246.427 79.16 246.427 78.584C246.427 78.1147 246.565 77.688 246.843 77.304C247.12 76.9093 247.515 76.6 248.027 76.376C248.549 76.152 249.147 76.04 249.819 76.04C250.821 76.04 251.627 76.296 252.235 76.808C252.853 77.3093 253.184 77.9973 253.227 78.872H251.403C251.371 78.4773 251.211 78.1627 250.923 77.928C250.635 77.6933 250.245 77.576 249.755 77.576C249.275 77.576 248.907 77.6667 248.651 77.848C248.395 78.0293 248.267 78.2693 248.267 78.568C248.267 78.8027 248.352 79 248.523 79.16C248.693 79.32 248.901 79.448 249.147 79.544C249.392 79.6293 249.755 79.7413 250.235 79.88C250.875 80.0507 251.397 80.2267 251.803 80.408C252.219 80.5787 252.576 80.8347 252.875 81.176C253.173 81.5173 253.328 81.9707 253.339 82.536C253.339 83.0373 253.2 83.4853 252.923 83.88C252.645 84.2747 252.251 84.584 251.739 84.808C251.237 85.032 250.645 85.144 249.963 85.144ZM257.437 77.672V82.552C257.437 82.8827 257.512 83.1227 257.661 83.272C257.821 83.4107 258.088 83.48 258.461 83.48H259.581V85H258.141C257.32 85 256.691 84.808 256.253 84.424C255.816 84.04 255.597 83.416 255.597 82.552V77.672H254.557V76.184H255.597V73.992H257.437V76.184H259.581V77.672H257.437ZM260.655 80.552C260.655 79.6667 260.836 78.8827 261.199 78.2C261.572 77.5173 262.073 76.9893 262.703 76.616C263.343 76.232 264.047 76.04 264.815 76.04C265.508 76.04 266.111 76.1787 266.623 76.456C267.145 76.7227 267.561 77.0587 267.871 77.464V76.184H269.711V85H267.871V83.688C267.561 84.104 267.14 84.4507 266.607 84.728C266.073 85.0053 265.465 85.144 264.783 85.144C264.025 85.144 263.332 84.952 262.703 84.568C262.073 84.1733 261.572 83.6293 261.199 82.936C260.836 82.232 260.655 81.4373 260.655 80.552ZM267.871 80.584C267.871 79.976 267.743 79.448 267.487 79C267.241 78.552 266.916 78.2107 266.511 77.976C266.105 77.7413 265.668 77.624 265.199 77.624C264.729 77.624 264.292 77.7413 263.887 77.976C263.481 78.2 263.151 78.536 262.895 78.984C262.649 79.4213 262.527 79.944 262.527 80.552C262.527 81.16 262.649 81.6933 262.895 82.152C263.151 82.6107 263.481 82.9627 263.887 83.208C264.303 83.4427 264.74 83.56 265.199 83.56C265.668 83.56 266.105 83.4427 266.511 83.208C266.916 82.9733 267.241 82.632 267.487 82.184C267.743 81.7253 267.871 81.192 267.871 80.584ZM276.554 76.04C277.248 76.04 277.866 76.184 278.41 76.472C278.965 76.76 279.397 77.1867 279.706 77.752C280.016 78.3173 280.17 79 280.17 79.8V85H278.362V80.072C278.362 79.2827 278.165 78.68 277.77 78.264C277.376 77.8373 276.837 77.624 276.154 77.624C275.472 77.624 274.928 77.8373 274.522 78.264C274.128 78.68 273.93 79.2827 273.93 80.072V85H272.106V76.184H273.93V77.192C274.229 76.8293 274.608 76.5467 275.066 76.344C275.536 76.1413 276.032 76.04 276.554 76.04ZM284.625 77.672V82.552C284.625 82.8827 284.7 83.1227 284.849 83.272C285.009 83.4107 285.276 83.48 285.649 83.48H286.769V85H285.329C284.508 85 283.878 84.808 283.441 84.424C283.004 84.04 282.785 83.416 282.785 82.552V77.672H281.745V76.184H282.785V73.992H284.625V76.184H286.769V77.672H284.625ZM296.53 80.376C296.53 80.7067 296.509 81.0053 296.466 81.272H289.73C289.783 81.976 290.045 82.5413 290.514 82.968C290.983 83.3947 291.559 83.608 292.242 83.608C293.223 83.608 293.917 83.1973 294.322 82.376H296.29C296.023 83.1867 295.538 83.8533 294.834 84.376C294.141 84.888 293.277 85.144 292.242 85.144C291.399 85.144 290.642 84.9573 289.97 84.584C289.309 84.2 288.786 83.6667 288.402 82.984C288.029 82.2907 287.842 81.4907 287.842 80.584C287.842 79.6773 288.023 78.8827 288.386 78.2C288.759 77.5067 289.277 76.9733 289.938 76.6C290.61 76.2267 291.378 76.04 292.242 76.04C293.074 76.04 293.815 76.2213 294.466 76.584C295.117 76.9467 295.623 77.4587 295.986 78.12C296.349 78.7707 296.53 79.5227 296.53 80.376ZM294.626 79.8C294.615 79.128 294.375 78.5893 293.906 78.184C293.437 77.7787 292.855 77.576 292.162 77.576C291.533 77.576 290.994 77.7787 290.546 78.184C290.098 78.5787 289.831 79.1173 289.746 79.8H294.626ZM306.305 85.144C305.473 85.144 304.721 84.9573 304.049 84.584C303.377 84.2 302.849 83.6667 302.465 82.984C302.081 82.2907 301.889 81.4907 301.889 80.584C301.889 79.688 302.087 78.8933 302.481 78.2C302.876 77.5067 303.415 76.9733 304.097 76.6C304.78 76.2267 305.543 76.04 306.385 76.04C307.228 76.04 307.991 76.2267 308.673 76.6C309.356 76.9733 309.895 77.5067 310.289 78.2C310.684 78.8933 310.881 79.688 310.881 80.584C310.881 81.48 310.679 82.2747 310.273 82.968C309.868 83.6613 309.313 84.2 308.609 84.584C307.916 84.9573 307.148 85.144 306.305 85.144ZM306.305 83.56C306.775 83.56 307.212 83.448 307.617 83.224C308.033 83 308.369 82.664 308.625 82.216C308.881 81.768 309.009 81.224 309.009 80.584C309.009 79.944 308.887 79.4053 308.641 78.968C308.396 78.52 308.071 78.184 307.665 77.96C307.26 77.736 306.823 77.624 306.353 77.624C305.884 77.624 305.447 77.736 305.041 77.96C304.647 78.184 304.332 78.52 304.097 78.968C303.863 79.4053 303.745 79.944 303.745 80.584C303.745 81.5333 303.985 82.2693 304.465 82.792C304.956 83.304 305.569 83.56 306.305 83.56ZM316.233 80.552C316.233 79.6667 316.414 78.8827 316.777 78.2C317.15 77.5173 317.651 76.9893 318.281 76.616C318.921 76.232 319.63 76.04 320.409 76.04C321.091 76.04 321.694 76.1787 322.217 76.456C322.75 76.7333 323.161 77.0693 323.449 77.464V76.184H325.289V89.192H323.449V83.72C323.161 84.1147 322.745 84.4507 322.201 84.728C321.657 85.0053 321.038 85.144 320.345 85.144C319.587 85.144 318.894 84.952 318.265 84.568C317.646 84.1733 317.15 83.6293 316.777 82.936C316.414 82.232 316.233 81.4373 316.233 80.552ZM323.449 80.584C323.449 79.976 323.321 79.448 323.065 79C322.819 78.552 322.494 78.2107 322.089 77.976C321.683 77.7413 321.246 77.624 320.777 77.624C320.307 77.624 319.87 77.7413 319.465 77.976C319.059 78.2 318.729 78.536 318.473 78.984C318.227 79.4213 318.105 79.944 318.105 80.552C318.105 81.16 318.227 81.6933 318.473 82.152C318.729 82.6107 319.059 82.9627 319.465 83.208C319.881 83.4427 320.318 83.56 320.777 83.56C321.246 83.56 321.683 83.4427 322.089 83.208C322.494 82.9733 322.819 82.632 323.065 82.184C323.321 81.7253 323.449 81.192 323.449 80.584ZM335.668 76.184V85H333.844V83.96C333.556 84.3227 333.178 84.6107 332.708 84.824C332.25 85.0267 331.759 85.128 331.236 85.128C330.543 85.128 329.919 84.984 329.364 84.696C328.82 84.408 328.388 83.9813 328.068 83.416C327.759 82.8507 327.604 82.168 327.604 81.368V76.184H329.412V81.096C329.412 81.8853 329.61 82.4933 330.004 82.92C330.399 83.336 330.938 83.544 331.62 83.544C332.303 83.544 332.842 83.336 333.236 82.92C333.642 82.4933 333.844 81.8853 333.844 81.096V76.184H335.668ZM346.155 80.376C346.155 80.7067 346.134 81.0053 346.091 81.272H339.355C339.408 81.976 339.67 82.5413 340.139 82.968C340.608 83.3947 341.184 83.608 341.867 83.608C342.848 83.608 343.542 83.1973 343.947 82.376H345.915C345.648 83.1867 345.163 83.8533 344.459 84.376C343.766 84.888 342.902 85.144 341.867 85.144C341.024 85.144 340.267 84.9573 339.595 84.584C338.934 84.2 338.411 83.6667 338.027 82.984C337.654 82.2907 337.467 81.4907 337.467 80.584C337.467 79.6773 337.648 78.8827 338.011 78.2C338.384 77.5067 338.902 76.9733 339.563 76.6C340.235 76.2267 341.003 76.04 341.867 76.04C342.699 76.04 343.44 76.2213 344.091 76.584C344.742 76.9467 345.248 77.4587 345.611 78.12C345.974 78.7707 346.155 79.5227 346.155 80.376ZM344.251 79.8C344.24 79.128 344 78.5893 343.531 78.184C343.062 77.7787 342.48 77.576 341.787 77.576C341.158 77.576 340.619 77.7787 340.171 78.184C339.723 78.5787 339.456 79.1173 339.371 79.8H344.251ZM72.6178 101.48C72.9271 101.075 73.3484 100.733 73.8818 100.456C74.4151 100.179 75.0178 100.04 75.6898 100.04C76.4578 100.04 77.1564 100.232 77.7858 100.616C78.4258 100.989 78.9271 101.517 79.2898 102.2C79.6524 102.883 79.8338 103.667 79.8338 104.552C79.8338 105.437 79.6524 106.232 79.2898 106.936C78.9271 107.629 78.4258 108.173 77.7858 108.568C77.1564 108.952 76.4578 109.144 75.6898 109.144C75.0178 109.144 74.4204 109.011 73.8978 108.744C73.3751 108.467 72.9484 108.125 72.6178 107.72V113.192H70.7938V100.184H72.6178V101.48ZM77.9778 104.552C77.9778 103.944 77.8498 103.421 77.5938 102.984C77.3484 102.536 77.0178 102.2 76.6018 101.976C76.1964 101.741 75.7591 101.624 75.2898 101.624C74.8311 101.624 74.3938 101.741 73.9778 101.976C73.5724 102.211 73.2418 102.552 72.9858 103C72.7404 103.448 72.6178 103.976 72.6178 104.584C72.6178 105.192 72.7404 105.725 72.9858 106.184C73.2418 106.632 73.5724 106.973 73.9778 107.208C74.3938 107.443 74.8311 107.56 75.2898 107.56C75.7591 107.56 76.1964 107.443 76.6018 107.208C77.0178 106.963 77.3484 106.611 77.5938 106.152C77.8498 105.693 77.9778 105.16 77.9778 104.552ZM83.4615 101.464C83.7282 101.016 84.0802 100.669 84.5175 100.424C84.9655 100.168 85.4935 100.04 86.1015 100.04V101.928H85.6375C84.9228 101.928 84.3788 102.109 84.0055 102.472C83.6428 102.835 83.4615 103.464 83.4615 104.36V109H81.6375V100.184H83.4615V101.464ZM95.8581 104.376C95.8581 104.707 95.8368 105.005 95.7941 105.272H89.0581C89.1115 105.976 89.3728 106.541 89.8421 106.968C90.3115 107.395 90.8875 107.608 91.5701 107.608C92.5515 107.608 93.2448 107.197 93.6501 106.376H95.6181C95.3515 107.187 94.8661 107.853 94.1621 108.376C93.4688 108.888 92.6048 109.144 91.5701 109.144C90.7275 109.144 89.9701 108.957 89.2981 108.584C88.6368 108.2 88.1141 107.667 87.7301 106.984C87.3568 106.291 87.1701 105.491 87.1701 104.584C87.1701 103.677 87.3515 102.883 87.7141 102.2C88.0875 101.507 88.6048 100.973 89.2661 100.6C89.9381 100.227 90.7061 100.04 91.5701 100.04C92.4021 100.04 93.1435 100.221 93.7941 100.584C94.4448 100.947 94.9515 101.459 95.3141 102.12C95.6768 102.771 95.8581 103.523 95.8581 104.376ZM93.9541 103.8C93.9435 103.128 93.7035 102.589 93.2341 102.184C92.7648 101.779 92.1835 101.576 91.4901 101.576C90.8608 101.576 90.3221 101.779 89.8741 102.184C89.4261 102.579 89.1595 103.117 89.0741 103.8H93.9541ZM97.0451 104.584C97.0451 103.677 97.2265 102.883 97.5891 102.2C97.9625 101.507 98.4745 100.973 99.1251 100.6C99.7758 100.227 100.522 100.04 101.365 100.04C102.432 100.04 103.312 100.296 104.005 100.808C104.709 101.309 105.184 102.029 105.429 102.968H103.461C103.301 102.531 103.045 102.189 102.693 101.944C102.341 101.699 101.898 101.576 101.365 101.576C100.618 101.576 100.021 101.843 99.5731 102.376C99.1358 102.899 98.9171 103.635 98.9171 104.584C98.9171 105.533 99.1358 106.275 99.5731 106.808C100.021 107.341 100.618 107.608 101.365 107.608C102.421 107.608 103.12 107.144 103.461 106.216H105.429C105.173 107.112 104.693 107.827 103.989 108.36C103.285 108.883 102.41 109.144 101.365 109.144C100.522 109.144 99.7758 108.957 99.1251 108.584C98.4745 108.2 97.9625 107.667 97.5891 106.984C97.2265 106.291 97.0451 105.491 97.0451 104.584ZM108.175 99.016C107.844 99.016 107.567 98.904 107.343 98.68C107.119 98.456 107.007 98.1787 107.007 97.848C107.007 97.5173 107.119 97.24 107.343 97.016C107.567 96.792 107.844 96.68 108.175 96.68C108.495 96.68 108.767 96.792 108.991 97.016C109.215 97.24 109.327 97.5173 109.327 97.848C109.327 98.1787 109.215 98.456 108.991 98.68C108.767 98.904 108.495 99.016 108.175 99.016ZM109.071 100.184V109H107.247V100.184H109.071ZM114.666 109.144C113.972 109.144 113.348 109.021 112.794 108.776C112.25 108.52 111.818 108.179 111.498 107.752C111.178 107.315 111.007 106.829 110.986 106.296H112.874C112.906 106.669 113.082 106.984 113.402 107.24C113.732 107.485 114.143 107.608 114.634 107.608C115.146 107.608 115.54 107.512 115.818 107.32C116.106 107.117 116.25 106.861 116.25 106.552C116.25 106.221 116.09 105.976 115.77 105.816C115.46 105.656 114.964 105.48 114.282 105.288C113.62 105.107 113.082 104.931 112.666 104.76C112.25 104.589 111.887 104.328 111.578 103.976C111.279 103.624 111.13 103.16 111.13 102.584C111.13 102.115 111.268 101.688 111.546 101.304C111.823 100.909 112.218 100.6 112.73 100.376C113.252 100.152 113.85 100.04 114.522 100.04C115.524 100.04 116.33 100.296 116.938 100.808C117.556 101.309 117.887 101.997 117.93 102.872H116.106C116.074 102.477 115.914 102.163 115.626 101.928C115.338 101.693 114.948 101.576 114.458 101.576C113.978 101.576 113.61 101.667 113.354 101.848C113.098 102.029 112.97 102.269 112.97 102.568C112.97 102.803 113.055 103 113.226 103.16C113.396 103.32 113.604 103.448 113.85 103.544C114.095 103.629 114.458 103.741 114.938 103.88C115.578 104.051 116.1 104.227 116.506 104.408C116.922 104.579 117.279 104.835 117.578 105.176C117.876 105.517 118.031 105.971 118.042 106.536C118.042 107.037 117.903 107.485 117.626 107.88C117.348 108.275 116.954 108.584 116.442 108.808C115.94 109.032 115.348 109.144 114.666 109.144ZM119.405 104.552C119.405 103.667 119.586 102.883 119.949 102.2C120.322 101.517 120.823 100.989 121.453 100.616C122.093 100.232 122.797 100.04 123.565 100.04C124.258 100.04 124.861 100.179 125.373 100.456C125.895 100.723 126.311 101.059 126.621 101.464V100.184H128.461V109H126.621V107.688C126.311 108.104 125.89 108.451 125.357 108.728C124.823 109.005 124.215 109.144 123.533 109.144C122.775 109.144 122.082 108.952 121.453 108.568C120.823 108.173 120.322 107.629 119.949 106.936C119.586 106.232 119.405 105.437 119.405 104.552ZM126.621 104.584C126.621 103.976 126.493 103.448 126.237 103C125.991 102.552 125.666 102.211 125.261 101.976C124.855 101.741 124.418 101.624 123.949 101.624C123.479 101.624 123.042 101.741 122.637 101.976C122.231 102.2 121.901 102.536 121.645 102.984C121.399 103.421 121.277 103.944 121.277 104.552C121.277 105.16 121.399 105.693 121.645 106.152C121.901 106.611 122.231 106.963 122.637 107.208C123.053 107.443 123.49 107.56 123.949 107.56C124.418 107.56 124.855 107.443 125.261 107.208C125.666 106.973 125.991 106.632 126.237 106.184C126.493 105.725 126.621 105.192 126.621 104.584ZM136.837 101.48C137.146 101.075 137.567 100.733 138.101 100.456C138.634 100.179 139.237 100.04 139.909 100.04C140.677 100.04 141.375 100.232 142.005 100.616C142.645 100.989 143.146 101.517 143.509 102.2C143.871 102.883 144.053 103.667 144.053 104.552C144.053 105.437 143.871 106.232 143.509 106.936C143.146 107.629 142.645 108.173 142.005 108.568C141.375 108.952 140.677 109.144 139.909 109.144C139.237 109.144 138.639 109.011 138.117 108.744C137.594 108.467 137.167 108.125 136.837 107.72V113.192H135.013V100.184H136.837V101.48ZM142.197 104.552C142.197 103.944 142.069 103.421 141.812 102.984C141.567 102.536 141.237 102.2 140.821 101.976C140.415 101.741 139.978 101.624 139.509 101.624C139.05 101.624 138.613 101.741 138.197 101.976C137.791 102.211 137.461 102.552 137.205 103C136.959 103.448 136.837 103.976 136.837 104.584C136.837 105.192 136.959 105.725 137.205 106.184C137.461 106.632 137.791 106.973 138.197 107.208C138.613 107.443 139.05 107.56 139.509 107.56C139.978 107.56 140.415 107.443 140.821 107.208C141.237 106.963 141.567 106.611 141.812 106.152C142.069 105.693 142.197 105.16 142.197 104.552ZM145.248 104.552C145.248 103.667 145.43 102.883 145.792 102.2C146.166 101.517 146.667 100.989 147.296 100.616C147.936 100.232 148.64 100.04 149.408 100.04C150.102 100.04 150.704 100.179 151.216 100.456C151.739 100.723 152.155 101.059 152.464 101.464V100.184H154.304V109H152.464V107.688C152.155 108.104 151.734 108.451 151.2 108.728C150.667 109.005 150.059 109.144 149.376 109.144C148.619 109.144 147.926 108.952 147.296 108.568C146.667 108.173 146.166 107.629 145.792 106.936C145.43 106.232 145.248 105.437 145.248 104.552ZM152.464 104.584C152.464 103.976 152.336 103.448 152.08 103C151.835 102.552 151.51 102.211 151.104 101.976C150.699 101.741 150.262 101.624 149.792 101.624C149.323 101.624 148.886 101.741 148.48 101.976C148.075 102.2 147.744 102.536 147.488 102.984C147.243 103.421 147.12 103.944 147.12 104.552C147.12 105.16 147.243 105.693 147.488 106.152C147.744 106.611 148.075 106.963 148.48 107.208C148.896 107.443 149.334 107.56 149.792 107.56C150.262 107.56 150.699 107.443 151.104 107.208C151.51 106.973 151.835 106.632 152.08 106.184C152.336 105.725 152.464 105.192 152.464 104.584ZM158.524 101.464C158.791 101.016 159.143 100.669 159.58 100.424C160.028 100.168 160.556 100.04 161.164 100.04V101.928H160.7C159.985 101.928 159.441 102.109 159.068 102.472C158.705 102.835 158.524 103.464 158.524 104.36V109H156.7V100.184H158.524V101.464ZM162.233 104.552C162.233 103.667 162.414 102.883 162.777 102.2C163.15 101.517 163.651 100.989 164.281 100.616C164.921 100.232 165.625 100.04 166.393 100.04C167.086 100.04 167.689 100.179 168.201 100.456C168.723 100.723 169.139 101.059 169.449 101.464V100.184H171.289V109H169.449V107.688C169.139 108.104 168.718 108.451 168.185 108.728C167.651 109.005 167.043 109.144 166.361 109.144C165.603 109.144 164.91 108.952 164.281 108.568C163.651 108.173 163.15 107.629 162.777 106.936C162.414 106.232 162.233 105.437 162.233 104.552ZM169.449 104.584C169.449 103.976 169.321 103.448 169.065 103C168.819 102.552 168.494 102.211 168.089 101.976C167.683 101.741 167.246 101.624 166.777 101.624C166.307 101.624 165.87 101.741 165.465 101.976C165.059 102.2 164.729 102.536 164.473 102.984C164.227 103.421 164.105 103.944 164.105 104.552C164.105 105.16 164.227 105.693 164.473 106.152C164.729 106.611 165.059 106.963 165.465 107.208C165.881 107.443 166.318 107.56 166.777 107.56C167.246 107.56 167.683 107.443 168.089 107.208C168.494 106.973 168.819 106.632 169.065 106.184C169.321 105.725 169.449 105.192 169.449 104.584ZM181.041 109.144C180.347 109.144 179.723 109.021 179.169 108.776C178.625 108.52 178.193 108.179 177.873 107.752C177.553 107.315 177.382 106.829 177.361 106.296H179.249C179.281 106.669 179.457 106.984 179.777 107.24C180.107 107.485 180.518 107.608 181.009 107.608C181.521 107.608 181.915 107.512 182.193 107.32C182.481 107.117 182.625 106.861 182.625 106.552C182.625 106.221 182.465 105.976 182.145 105.816C181.835 105.656 181.339 105.48 180.657 105.288C179.995 105.107 179.457 104.931 179.041 104.76C178.625 104.589 178.262 104.328 177.953 103.976C177.654 103.624 177.505 103.16 177.505 102.584C177.505 102.115 177.643 101.688 177.921 101.304C178.198 100.909 178.593 100.6 179.105 100.376C179.627 100.152 180.225 100.04 180.897 100.04C181.899 100.04 182.705 100.296 183.313 100.808C183.931 101.309 184.262 101.997 184.305 102.872H182.481C182.449 102.477 182.289 102.163 182.001 101.928C181.713 101.693 181.323 101.576 180.833 101.576C180.353 101.576 179.985 101.667 179.729 101.848C179.473 102.029 179.345 102.269 179.345 102.568C179.345 102.803 179.43 103 179.601 103.16C179.771 103.32 179.979 103.448 180.225 103.544C180.47 103.629 180.833 103.741 181.313 103.88C181.953 104.051 182.475 104.227 182.881 104.408C183.297 104.579 183.654 104.835 183.953 105.176C184.251 105.517 184.406 105.971 184.417 106.536C184.417 107.037 184.278 107.485 184.001 107.88C183.723 108.275 183.329 108.584 182.817 108.808C182.315 109.032 181.723 109.144 181.041 109.144ZM194.468 104.376C194.468 104.707 194.446 105.005 194.404 105.272H187.668C187.721 105.976 187.982 106.541 188.452 106.968C188.921 107.395 189.497 107.608 190.18 107.608C191.161 107.608 191.854 107.197 192.26 106.376H194.227C193.961 107.187 193.476 107.853 192.772 108.376C192.078 108.888 191.214 109.144 190.18 109.144C189.337 109.144 188.58 108.957 187.908 108.584C187.246 108.2 186.724 107.667 186.34 106.984C185.966 106.291 185.78 105.491 185.78 104.584C185.78 103.677 185.961 102.883 186.324 102.2C186.697 101.507 187.214 100.973 187.876 100.6C188.548 100.227 189.316 100.04 190.18 100.04C191.012 100.04 191.753 100.221 192.404 100.584C193.054 100.947 193.561 101.459 193.924 102.12C194.286 102.771 194.468 103.523 194.468 104.376ZM192.564 103.8C192.553 103.128 192.313 102.589 191.844 102.184C191.374 101.779 190.793 101.576 190.1 101.576C189.47 101.576 188.932 101.779 188.484 102.184C188.036 102.579 187.769 103.117 187.684 103.8H192.564ZM204.247 100.184V109H202.423V107.96C202.135 108.323 201.756 108.611 201.287 108.824C200.828 109.027 200.337 109.128 199.815 109.128C199.121 109.128 198.497 108.984 197.943 108.696C197.399 108.408 196.967 107.981 196.647 107.416C196.337 106.851 196.183 106.168 196.183 105.368V100.184H197.991V105.096C197.991 105.885 198.188 106.493 198.583 106.92C198.977 107.336 199.516 107.544 200.199 107.544C200.881 107.544 201.42 107.336 201.815 106.92C202.22 106.493 202.423 105.885 202.423 105.096V100.184H204.247ZM210.201 104.552C210.201 103.667 210.383 102.883 210.745 102.2C211.119 101.517 211.62 100.989 212.249 100.616C212.889 100.232 213.599 100.04 214.377 100.04C214.953 100.04 215.519 100.168 216.073 100.424C216.639 100.669 217.087 101 217.417 101.416V97.16H219.257V109H217.417V107.672C217.119 108.099 216.703 108.451 216.169 108.728C215.647 109.005 215.044 109.144 214.361 109.144C213.593 109.144 212.889 108.952 212.249 108.568C211.62 108.173 211.119 107.629 210.745 106.936C210.383 106.232 210.201 105.437 210.201 104.552ZM217.417 104.584C217.417 103.976 217.289 103.448 217.033 103C216.788 102.552 216.463 102.211 216.057 101.976C215.652 101.741 215.215 101.624 214.745 101.624C214.276 101.624 213.839 101.741 213.433 101.976C213.028 102.2 212.697 102.536 212.441 102.984C212.196 103.421 212.073 103.944 212.073 104.552C212.073 105.16 212.196 105.693 212.441 106.152C212.697 106.611 213.028 106.963 213.433 107.208C213.849 107.443 214.287 107.56 214.745 107.56C215.215 107.56 215.652 107.443 216.057 107.208C216.463 106.973 216.788 106.632 217.033 106.184C217.289 105.725 217.417 105.192 217.417 104.584ZM229.733 104.376C229.733 104.707 229.712 105.005 229.669 105.272H222.933C222.986 105.976 223.248 106.541 223.717 106.968C224.186 107.395 224.762 107.608 225.445 107.608C226.426 107.608 227.12 107.197 227.525 106.376H229.493C229.226 107.187 228.741 107.853 228.037 108.376C227.344 108.888 226.48 109.144 225.445 109.144C224.602 109.144 223.845 108.957 223.173 108.584C222.512 108.2 221.989 107.667 221.605 106.984C221.232 106.291 221.045 105.491 221.045 104.584C221.045 103.677 221.226 102.883 221.589 102.2C221.962 101.507 222.48 100.973 223.141 100.6C223.813 100.227 224.581 100.04 225.445 100.04C226.277 100.04 227.018 100.221 227.669 100.584C228.32 100.947 228.826 101.459 229.189 102.12C229.552 102.771 229.733 103.523 229.733 104.376ZM227.829 103.8C227.818 103.128 227.578 102.589 227.109 102.184C226.64 101.779 226.058 101.576 225.365 101.576C224.736 101.576 224.197 101.779 223.749 102.184C223.301 102.579 223.034 103.117 222.949 103.8H227.829ZM234.728 109.144C234.035 109.144 233.411 109.021 232.856 108.776C232.312 108.52 231.88 108.179 231.56 107.752C231.24 107.315 231.069 106.829 231.048 106.296H232.936C232.968 106.669 233.144 106.984 233.464 107.24C233.795 107.485 234.205 107.608 234.696 107.608C235.208 107.608 235.603 107.512 235.88 107.32C236.168 107.117 236.312 106.861 236.312 106.552C236.312 106.221 236.152 105.976 235.832 105.816C235.523 105.656 235.027 105.48 234.344 105.288C233.683 105.107 233.144 104.931 232.728 104.76C232.312 104.589 231.949 104.328 231.64 103.976C231.341 103.624 231.192 103.16 231.192 102.584C231.192 102.115 231.331 101.688 231.608 101.304C231.885 100.909 232.28 100.6 232.792 100.376C233.315 100.152 233.912 100.04 234.584 100.04C235.587 100.04 236.392 100.296 237 100.808C237.619 101.309 237.949 101.997 237.992 102.872H236.168C236.136 102.477 235.976 102.163 235.688 101.928C235.4 101.693 235.011 101.576 234.52 101.576C234.04 101.576 233.672 101.667 233.416 101.848C233.16 102.029 233.032 102.269 233.032 102.568C233.032 102.803 233.117 103 233.288 103.16C233.459 103.32 233.667 103.448 233.912 103.544C234.157 103.629 234.52 103.741 235 103.88C235.64 104.051 236.163 104.227 236.568 104.408C236.984 104.579 237.341 104.835 237.64 105.176C237.939 105.517 238.093 105.971 238.104 106.536C238.104 107.037 237.965 107.485 237.688 107.88C237.411 108.275 237.016 108.584 236.504 108.808C236.003 109.032 235.411 109.144 234.728 109.144ZM248.155 104.376C248.155 104.707 248.134 105.005 248.091 105.272H241.355C241.408 105.976 241.67 106.541 242.139 106.968C242.608 107.395 243.184 107.608 243.867 107.608C244.848 107.608 245.542 107.197 245.947 106.376H247.915C247.648 107.187 247.163 107.853 246.459 108.376C245.766 108.888 244.902 109.144 243.867 109.144C243.024 109.144 242.267 108.957 241.595 108.584C240.934 108.2 240.411 107.667 240.027 106.984C239.654 106.291 239.467 105.491 239.467 104.584C239.467 103.677 239.648 102.883 240.011 102.2C240.384 101.507 240.902 100.973 241.563 100.6C242.235 100.227 243.003 100.04 243.867 100.04C244.699 100.04 245.44 100.221 246.091 100.584C246.742 100.947 247.248 101.459 247.611 102.12C247.974 102.771 248.155 103.523 248.155 104.376ZM246.251 103.8C246.24 103.128 246 102.589 245.531 102.184C245.062 101.779 244.48 101.576 243.787 101.576C243.158 101.576 242.619 101.779 242.171 102.184C241.723 102.579 241.456 103.117 241.371 103.8H246.251ZM254.398 100.04C255.091 100.04 255.71 100.184 256.254 100.472C256.809 100.76 257.241 101.187 257.55 101.752C257.859 102.317 258.014 103 258.014 103.8V109H256.206V104.072C256.206 103.283 256.009 102.68 255.614 102.264C255.219 101.837 254.681 101.624 253.998 101.624C253.315 101.624 252.771 101.837 252.366 102.264C251.971 102.68 251.774 103.283 251.774 104.072V109H249.95V100.184H251.774V101.192C252.073 100.829 252.451 100.547 252.91 100.344C253.379 100.141 253.875 100.04 254.398 100.04ZM263.749 107.368L266.245 100.184H268.181L264.821 109H262.645L259.301 100.184H261.253L263.749 107.368ZM273.383 109.144C272.551 109.144 271.799 108.957 271.127 108.584C270.455 108.2 269.927 107.667 269.543 106.984C269.159 106.291 268.967 105.491 268.967 104.584C268.967 103.688 269.165 102.893 269.559 102.2C269.954 101.507 270.493 100.973 271.175 100.6C271.858 100.227 272.621 100.04 273.463 100.04C274.306 100.04 275.069 100.227 275.751 100.6C276.434 100.973 276.973 101.507 277.367 102.2C277.762 102.893 277.959 103.688 277.959 104.584C277.959 105.48 277.757 106.275 277.351 106.968C276.946 107.661 276.391 108.2 275.687 108.584C274.994 108.957 274.226 109.144 273.383 109.144ZM273.383 107.56C273.853 107.56 274.29 107.448 274.695 107.224C275.111 107 275.447 106.664 275.703 106.216C275.959 105.768 276.087 105.224 276.087 104.584C276.087 103.944 275.965 103.405 275.719 102.968C275.474 102.52 275.149 102.184 274.743 101.96C274.338 101.736 273.901 101.624 273.431 101.624C272.962 101.624 272.525 101.736 272.119 101.96C271.725 102.184 271.41 102.52 271.175 102.968C270.941 103.405 270.823 103.944 270.823 104.584C270.823 105.533 271.063 106.269 271.543 106.792C272.034 107.304 272.647 107.56 273.383 107.56ZM281.587 97.16V109H279.763V97.16H281.587ZM287.389 107.368L289.885 100.184H291.821L288.461 109H286.285L282.941 100.184H284.893L287.389 107.368ZM294.128 99.016C293.797 99.016 293.52 98.904 293.296 98.68C293.072 98.456 292.96 98.1787 292.96 97.848C292.96 97.5173 293.072 97.24 293.296 97.016C293.52 96.792 293.797 96.68 294.128 96.68C294.448 96.68 294.72 96.792 294.944 97.016C295.168 97.24 295.28 97.5173 295.28 97.848C295.28 98.1787 295.168 98.456 294.944 98.68C294.72 98.904 294.448 99.016 294.128 99.016ZM295.024 100.184V109H293.2V100.184H295.024ZM308.091 100.04C308.784 100.04 309.403 100.184 309.947 100.472C310.501 100.76 310.933 101.187 311.243 101.752C311.563 102.317 311.723 103 311.723 103.8V109H309.915V104.072C309.915 103.283 309.717 102.68 309.323 102.264C308.928 101.837 308.389 101.624 307.707 101.624C307.024 101.624 306.48 101.837 306.075 102.264C305.68 102.68 305.483 103.283 305.483 104.072V109H303.675V104.072C303.675 103.283 303.477 102.68 303.083 102.264C302.688 101.837 302.149 101.624 301.467 101.624C300.784 101.624 300.24 101.837 299.835 102.264C299.44 102.68 299.243 103.283 299.243 104.072V109H297.419V100.184H299.243V101.192C299.541 100.829 299.92 100.547 300.379 100.344C300.837 100.141 301.328 100.04 301.851 100.04C302.555 100.04 303.184 100.189 303.739 100.488C304.293 100.787 304.72 101.219 305.019 101.784C305.285 101.251 305.701 100.829 306.267 100.52C306.832 100.2 307.44 100.04 308.091 100.04ZM322.124 104.376C322.124 104.707 322.102 105.005 322.06 105.272H315.324C315.377 105.976 315.638 106.541 316.108 106.968C316.577 107.395 317.153 107.608 317.836 107.608C318.817 107.608 319.51 107.197 319.916 106.376H321.884C321.617 107.187 321.132 107.853 320.428 108.376C319.734 108.888 318.87 109.144 317.836 109.144C316.993 109.144 316.236 108.957 315.564 108.584C314.902 108.2 314.38 107.667 313.996 106.984C313.622 106.291 313.436 105.491 313.436 104.584C313.436 103.677 313.617 102.883 313.98 102.2C314.353 101.507 314.87 100.973 315.532 100.6C316.204 100.227 316.972 100.04 317.836 100.04C318.668 100.04 319.409 100.221 320.06 100.584C320.71 100.947 321.217 101.459 321.58 102.12C321.942 102.771 322.124 103.523 322.124 104.376ZM320.22 103.8C320.209 103.128 319.969 102.589 319.5 102.184C319.03 101.779 318.449 101.576 317.756 101.576C317.126 101.576 316.588 101.779 316.14 102.184C315.692 102.579 315.425 103.117 315.34 103.8H320.22ZM328.367 100.04C329.06 100.04 329.679 100.184 330.223 100.472C330.777 100.76 331.209 101.187 331.519 101.752C331.828 102.317 331.983 103 331.983 103.8V109H330.175V104.072C330.175 103.283 329.977 102.68 329.583 102.264C329.188 101.837 328.649 101.624 327.967 101.624C327.284 101.624 326.74 101.837 326.335 102.264C325.94 102.68 325.743 103.283 325.743 104.072V109H323.919V100.184H325.743V101.192C326.041 100.829 326.42 100.547 326.879 100.344C327.348 100.141 327.844 100.04 328.367 100.04ZM336.437 101.672V106.552C336.437 106.883 336.512 107.123 336.661 107.272C336.821 107.411 337.088 107.48 337.461 107.48H338.581V109H337.141C336.32 109 335.691 108.808 335.253 108.424C334.816 108.04 334.597 107.416 334.597 106.552V101.672H333.557V100.184H334.597V97.992H336.437V100.184H338.581V101.672H336.437ZM344.087 109.144C343.255 109.144 342.503 108.957 341.831 108.584C341.159 108.2 340.631 107.667 340.247 106.984C339.863 106.291 339.671 105.491 339.671 104.584C339.671 103.688 339.868 102.893 340.263 102.2C340.657 101.507 341.196 100.973 341.879 100.6C342.561 100.227 343.324 100.04 344.167 100.04C345.009 100.04 345.772 100.227 346.455 100.6C347.137 100.973 347.676 101.507 348.071 102.2C348.465 102.893 348.663 103.688 348.663 104.584C348.663 105.48 348.46 106.275 348.055 106.968C347.649 107.661 347.095 108.2 346.391 108.584C345.697 108.957 344.929 109.144 344.087 109.144ZM344.087 107.56C344.556 107.56 344.993 107.448 345.399 107.224C345.815 107 346.151 106.664 346.407 106.216C346.663 105.768 346.791 105.224 346.791 104.584C346.791 103.944 346.668 103.405 346.423 102.968C346.177 102.52 345.852 102.184 345.447 101.96C345.041 101.736 344.604 101.624 344.135 101.624C343.665 101.624 343.228 101.736 342.823 101.96C342.428 102.184 342.113 102.52 341.879 102.968C341.644 103.405 341.527 103.944 341.527 104.584C341.527 105.533 341.767 106.269 342.247 106.792C342.737 107.304 343.351 107.56 344.087 107.56ZM352.754 97.88L352.546 105.64H351.026L350.818 97.88H352.754ZM351.842 109.112C351.511 109.112 351.234 109 351.01 108.776C350.786 108.552 350.674 108.275 350.674 107.944C350.674 107.613 350.786 107.336 351.01 107.112C351.234 106.888 351.511 106.776 351.842 106.776C352.162 106.776 352.434 106.888 352.658 107.112C352.882 107.336 352.994 107.613 352.994 107.944C352.994 108.275 352.882 108.552 352.658 108.776C352.434 109 352.162 109.112 351.842 109.112Z" fill="white"/>
<g clip-path="url(#clip1_126_4367)">
<path d="M105.5 163H104.71L104.43 162.73C105.41 161.59 106 160.11 106 158.5C106 154.91 103.09 152 99.5 152C95.91 152 93 154.91 93 158.5C93 162.09 95.91 165 99.5 165C101.11 165 102.59 164.41 103.73 163.43L104 163.71V164.5L109 169.49L110.49 168L105.5 163ZM99.5 163C97.01 163 95 160.99 95 158.5C95 156.01 97.01 154 99.5 154C101.99 154 104 156.01 104 158.5C104 160.99 101.99 163 99.5 163Z" fill="white"/>
</g>
<path d="M132.904 167.348L130.958 165.402C130.482 165.533 129.997 165.598 129.502 165.598C128.597 165.598 127.771 165.388 127.024 164.968C126.277 164.539 125.685 163.946 125.246 163.19C124.817 162.425 124.602 161.566 124.602 160.614C124.602 159.662 124.817 158.808 125.246 158.052C125.685 157.287 126.277 156.694 127.024 156.274C127.771 155.845 128.597 155.63 129.502 155.63C130.417 155.63 131.247 155.845 131.994 156.274C132.741 156.694 133.329 157.282 133.758 158.038C134.187 158.794 134.402 159.653 134.402 160.614C134.402 161.547 134.197 162.387 133.786 163.134C133.375 163.881 132.811 164.469 132.092 164.898L134.556 167.348H132.904ZM125.904 160.614C125.904 161.389 126.058 162.07 126.366 162.658C126.683 163.246 127.113 163.699 127.654 164.016C128.205 164.333 128.821 164.492 129.502 164.492C130.183 164.492 130.795 164.333 131.336 164.016C131.887 163.699 132.316 163.246 132.624 162.658C132.941 162.07 133.1 161.389 133.1 160.614C133.1 159.83 132.941 159.149 132.624 158.57C132.316 157.982 131.891 157.529 131.35 157.212C130.809 156.895 130.193 156.736 129.502 156.736C128.811 156.736 128.195 156.895 127.654 157.212C127.113 157.529 126.683 157.982 126.366 158.57C126.058 159.149 125.904 159.83 125.904 160.614ZM142.915 157.828V165.5H141.641V164.366C141.399 164.758 141.058 165.066 140.619 165.29C140.19 165.505 139.714 165.612 139.191 165.612C138.594 165.612 138.057 165.491 137.581 165.248C137.105 164.996 136.727 164.623 136.447 164.128C136.177 163.633 136.041 163.031 136.041 162.322V157.828H137.301V162.154C137.301 162.91 137.493 163.493 137.875 163.904C138.258 164.305 138.781 164.506 139.443 164.506C140.125 164.506 140.661 164.296 141.053 163.876C141.445 163.456 141.641 162.845 141.641 162.042V157.828H142.915ZM144.59 161.636C144.59 160.852 144.749 160.166 145.066 159.578C145.384 158.981 145.818 158.519 146.368 158.192C146.928 157.865 147.549 157.702 148.23 157.702C148.902 157.702 149.486 157.847 149.98 158.136C150.475 158.425 150.844 158.789 151.086 159.228V157.828H152.374V165.5H151.086V164.072C150.834 164.52 150.456 164.893 149.952 165.192C149.458 165.481 148.879 165.626 148.216 165.626C147.535 165.626 146.919 165.458 146.368 165.122C145.818 164.786 145.384 164.315 145.066 163.708C144.749 163.101 144.59 162.411 144.59 161.636ZM151.086 161.65C151.086 161.071 150.97 160.567 150.736 160.138C150.503 159.709 150.186 159.382 149.784 159.158C149.392 158.925 148.958 158.808 148.482 158.808C148.006 158.808 147.572 158.92 147.18 159.144C146.788 159.368 146.476 159.695 146.242 160.124C146.009 160.553 145.892 161.057 145.892 161.636C145.892 162.224 146.009 162.737 146.242 163.176C146.476 163.605 146.788 163.937 147.18 164.17C147.572 164.394 148.006 164.506 148.482 164.506C148.958 164.506 149.392 164.394 149.784 164.17C150.186 163.937 150.503 163.605 150.736 163.176C150.97 162.737 151.086 162.229 151.086 161.65ZM155.801 155.14V165.5H154.527V155.14H155.801ZM164.421 165.626C163.833 165.626 163.306 165.528 162.839 165.332C162.372 165.127 162.004 164.847 161.733 164.492C161.462 164.128 161.313 163.713 161.285 163.246H162.601C162.638 163.629 162.816 163.941 163.133 164.184C163.46 164.427 163.884 164.548 164.407 164.548C164.892 164.548 165.275 164.441 165.555 164.226C165.835 164.011 165.975 163.741 165.975 163.414C165.975 163.078 165.826 162.831 165.527 162.672C165.228 162.504 164.766 162.341 164.141 162.182C163.572 162.033 163.105 161.883 162.741 161.734C162.386 161.575 162.078 161.347 161.817 161.048C161.565 160.74 161.439 160.339 161.439 159.844C161.439 159.452 161.556 159.093 161.789 158.766C162.022 158.439 162.354 158.183 162.783 157.996C163.212 157.8 163.702 157.702 164.253 157.702C165.102 157.702 165.788 157.917 166.311 158.346C166.834 158.775 167.114 159.363 167.151 160.11H165.877C165.849 159.709 165.686 159.387 165.387 159.144C165.098 158.901 164.706 158.78 164.211 158.78C163.754 158.78 163.39 158.878 163.119 159.074C162.848 159.27 162.713 159.527 162.713 159.844C162.713 160.096 162.792 160.306 162.951 160.474C163.119 160.633 163.324 160.763 163.567 160.866C163.819 160.959 164.164 161.067 164.603 161.188C165.154 161.337 165.602 161.487 165.947 161.636C166.292 161.776 166.586 161.991 166.829 162.28C167.081 162.569 167.212 162.947 167.221 163.414C167.221 163.834 167.104 164.212 166.871 164.548C166.638 164.884 166.306 165.15 165.877 165.346C165.457 165.533 164.972 165.626 164.421 165.626ZM176.019 161.37C176.019 161.613 176.005 161.869 175.977 162.14H169.845C169.892 162.896 170.149 163.489 170.615 163.918C171.091 164.338 171.665 164.548 172.337 164.548C172.888 164.548 173.345 164.422 173.709 164.17C174.083 163.909 174.344 163.563 174.493 163.134H175.865C175.66 163.871 175.249 164.473 174.633 164.94C174.017 165.397 173.252 165.626 172.337 165.626C171.609 165.626 170.956 165.463 170.377 165.136C169.808 164.809 169.36 164.347 169.033 163.75C168.707 163.143 168.543 162.443 168.543 161.65C168.543 160.857 168.702 160.161 169.019 159.564C169.337 158.967 169.78 158.509 170.349 158.192C170.928 157.865 171.591 157.702 172.337 157.702C173.065 157.702 173.709 157.861 174.269 158.178C174.829 158.495 175.259 158.934 175.557 159.494C175.865 160.045 176.019 160.67 176.019 161.37ZM174.703 161.104C174.703 160.619 174.596 160.203 174.381 159.858C174.167 159.503 173.873 159.237 173.499 159.06C173.135 158.873 172.729 158.78 172.281 158.78C171.637 158.78 171.087 158.985 170.629 159.396C170.181 159.807 169.925 160.376 169.859 161.104H174.703ZM178.975 159.074C179.199 158.635 179.516 158.295 179.927 158.052C180.347 157.809 180.856 157.688 181.453 157.688V159.004H181.117C179.689 159.004 178.975 159.779 178.975 161.328V165.5H177.701V157.828H178.975V159.074ZM182.448 161.636C182.448 160.852 182.606 160.166 182.924 159.578C183.241 158.981 183.675 158.519 184.226 158.192C184.786 157.865 185.406 157.702 186.088 157.702C186.76 157.702 187.343 157.847 187.838 158.136C188.332 158.425 188.701 158.789 188.944 159.228V157.828H190.232V165.5H188.944V164.072C188.692 164.52 188.314 164.893 187.81 165.192C187.315 165.481 186.736 165.626 186.074 165.626C185.392 165.626 184.776 165.458 184.226 165.122C183.675 164.786 183.241 164.315 182.924 163.708C182.606 163.101 182.448 162.411 182.448 161.636ZM188.944 161.65C188.944 161.071 188.827 160.567 188.594 160.138C188.36 159.709 188.043 159.382 187.642 159.158C187.25 158.925 186.816 158.808 186.34 158.808C185.864 158.808 185.43 158.92 185.038 159.144C184.646 159.368 184.333 159.695 184.1 160.124C183.866 160.553 183.75 161.057 183.75 161.636C183.75 162.224 183.866 162.737 184.1 163.176C184.333 163.605 184.646 163.937 185.038 164.17C185.43 164.394 185.864 164.506 186.34 164.506C186.816 164.506 187.25 164.394 187.642 164.17C188.043 163.937 188.36 163.605 188.594 163.176C188.827 162.737 188.944 162.229 188.944 161.65ZM187.95 155.658L184.968 157.254V156.302L187.95 154.552V155.658ZM198.833 165.626C198.245 165.626 197.718 165.528 197.251 165.332C196.784 165.127 196.416 164.847 196.145 164.492C195.874 164.128 195.725 163.713 195.697 163.246H197.013C197.05 163.629 197.228 163.941 197.545 164.184C197.872 164.427 198.296 164.548 198.819 164.548C199.304 164.548 199.687 164.441 199.967 164.226C200.247 164.011 200.387 163.741 200.387 163.414C200.387 163.078 200.238 162.831 199.939 162.672C199.64 162.504 199.178 162.341 198.553 162.182C197.984 162.033 197.517 161.883 197.153 161.734C196.798 161.575 196.49 161.347 196.229 161.048C195.977 160.74 195.851 160.339 195.851 159.844C195.851 159.452 195.968 159.093 196.201 158.766C196.434 158.439 196.766 158.183 197.195 157.996C197.624 157.8 198.114 157.702 198.665 157.702C199.514 157.702 200.2 157.917 200.723 158.346C201.246 158.775 201.526 159.363 201.563 160.11H200.289C200.261 159.709 200.098 159.387 199.799 159.144C199.51 158.901 199.118 158.78 198.623 158.78C198.166 158.78 197.802 158.878 197.531 159.074C197.26 159.27 197.125 159.527 197.125 159.844C197.125 160.096 197.204 160.306 197.363 160.474C197.531 160.633 197.736 160.763 197.979 160.866C198.231 160.959 198.576 161.067 199.015 161.188C199.566 161.337 200.014 161.487 200.359 161.636C200.704 161.776 200.998 161.991 201.241 162.28C201.493 162.569 201.624 162.947 201.633 163.414C201.633 163.834 201.516 164.212 201.283 164.548C201.05 164.884 200.718 165.15 200.289 165.346C199.869 165.533 199.384 165.626 198.833 165.626ZM210.236 157.828V165.5H208.962V164.366C208.719 164.758 208.378 165.066 207.94 165.29C207.51 165.505 207.034 165.612 206.512 165.612C205.914 165.612 205.378 165.491 204.902 165.248C204.426 164.996 204.048 164.623 203.768 164.128C203.497 163.633 203.362 163.031 203.362 162.322V157.828H204.622V162.154C204.622 162.91 204.813 163.493 205.196 163.904C205.578 164.305 206.101 164.506 206.764 164.506C207.445 164.506 207.982 164.296 208.374 163.876C208.766 163.456 208.962 162.845 208.962 162.042V157.828H210.236ZM211.911 161.636C211.911 160.852 212.069 160.166 212.387 159.578C212.704 158.981 213.138 158.519 213.689 158.192C214.249 157.865 214.869 157.702 215.551 157.702C216.223 157.702 216.806 157.847 217.301 158.136C217.795 158.425 218.164 158.789 218.407 159.228V157.828H219.695V165.5H218.407V164.072C218.155 164.52 217.777 164.893 217.273 165.192C216.778 165.481 216.199 165.626 215.537 165.626C214.855 165.626 214.239 165.458 213.689 165.122C213.138 164.786 212.704 164.315 212.387 163.708C212.069 163.101 211.911 162.411 211.911 161.636ZM218.407 161.65C218.407 161.071 218.29 160.567 218.057 160.138C217.823 159.709 217.506 159.382 217.105 159.158C216.713 158.925 216.279 158.808 215.803 158.808C215.327 158.808 214.893 158.92 214.501 159.144C214.109 159.368 213.796 159.695 213.563 160.124C213.329 160.553 213.213 161.057 213.213 161.636C213.213 162.224 213.329 162.737 213.563 163.176C213.796 163.605 214.109 163.937 214.501 164.17C214.893 164.394 215.327 164.506 215.803 164.506C216.279 164.506 216.713 164.394 217.105 164.17C217.506 163.937 217.823 163.605 218.057 163.176C218.29 162.737 218.407 162.229 218.407 161.65ZM226.854 159.242C227.106 158.803 227.479 158.439 227.974 158.15C228.478 157.851 229.061 157.702 229.724 157.702C230.405 157.702 231.021 157.865 231.572 158.192C232.132 158.519 232.571 158.981 232.888 159.578C233.205 160.166 233.364 160.852 233.364 161.636C233.364 162.411 233.205 163.101 232.888 163.708C232.571 164.315 232.132 164.786 231.572 165.122C231.021 165.458 230.405 165.626 229.724 165.626C229.071 165.626 228.492 165.481 227.988 165.192C227.493 164.893 227.115 164.525 226.854 164.086V169.14H225.58V157.828H226.854V159.242ZM232.062 161.636C232.062 161.057 231.945 160.553 231.712 160.124C231.479 159.695 231.161 159.368 230.76 159.144C230.368 158.92 229.934 158.808 229.458 158.808C228.991 158.808 228.557 158.925 228.156 159.158C227.764 159.382 227.447 159.713 227.204 160.152C226.971 160.581 226.854 161.081 226.854 161.65C226.854 162.229 226.971 162.737 227.204 163.176C227.447 163.605 227.764 163.937 228.156 164.17C228.557 164.394 228.991 164.506 229.458 164.506C229.934 164.506 230.368 164.394 230.76 164.17C231.161 163.937 231.479 163.605 231.712 163.176C231.945 162.737 232.062 162.224 232.062 161.636ZM236.315 159.074C236.539 158.635 236.856 158.295 237.267 158.052C237.687 157.809 238.196 157.688 238.793 157.688V159.004H238.457C237.029 159.004 236.315 159.779 236.315 161.328V165.5H235.041V157.828H236.315V159.074ZM243.61 165.626C242.891 165.626 242.238 165.463 241.65 165.136C241.071 164.809 240.614 164.347 240.278 163.75C239.951 163.143 239.788 162.443 239.788 161.65C239.788 160.866 239.956 160.175 240.292 159.578C240.637 158.971 241.104 158.509 241.692 158.192C242.28 157.865 242.938 157.702 243.666 157.702C244.394 157.702 245.052 157.865 245.64 158.192C246.228 158.509 246.69 158.967 247.026 159.564C247.371 160.161 247.544 160.857 247.544 161.65C247.544 162.443 247.366 163.143 247.012 163.75C246.666 164.347 246.195 164.809 245.598 165.136C245 165.463 244.338 165.626 243.61 165.626ZM243.61 164.506C244.067 164.506 244.496 164.399 244.898 164.184C245.299 163.969 245.621 163.647 245.864 163.218C246.116 162.789 246.242 162.266 246.242 161.65C246.242 161.034 246.12 160.511 245.878 160.082C245.635 159.653 245.318 159.335 244.926 159.13C244.534 158.915 244.109 158.808 243.652 158.808C243.185 158.808 242.756 158.915 242.364 159.13C241.981 159.335 241.673 159.653 241.44 160.082C241.206 160.511 241.09 161.034 241.09 161.65C241.09 162.275 241.202 162.803 241.426 163.232C241.659 163.661 241.967 163.983 242.35 164.198C242.732 164.403 243.152 164.506 243.61 164.506ZM245.038 155.56L242.056 157.156V156.204L245.038 154.454V155.56ZM253.223 165.5L251.403 162.644L249.653 165.5H248.323L250.801 161.692L248.323 157.828H249.765L251.585 160.67L253.321 157.828H254.651L252.187 161.622L254.665 165.5H253.223ZM256.576 156.582C256.333 156.582 256.128 156.498 255.96 156.33C255.792 156.162 255.708 155.957 255.708 155.714C255.708 155.471 255.792 155.266 255.96 155.098C256.128 154.93 256.333 154.846 256.576 154.846C256.809 154.846 257.005 154.93 257.164 155.098C257.332 155.266 257.416 155.471 257.416 155.714C257.416 155.957 257.332 156.162 257.164 156.33C257.005 156.498 256.809 156.582 256.576 156.582ZM257.192 157.828V165.5H255.918V157.828H257.192ZM268.589 157.688C269.186 157.688 269.718 157.814 270.185 158.066C270.652 158.309 271.02 158.677 271.291 159.172C271.562 159.667 271.697 160.269 271.697 160.978V165.5H270.437V161.16C270.437 160.395 270.246 159.811 269.863 159.41C269.49 158.999 268.981 158.794 268.337 158.794C267.674 158.794 267.147 159.009 266.755 159.438C266.363 159.858 266.167 160.469 266.167 161.272V165.5H264.907V161.16C264.907 160.395 264.716 159.811 264.333 159.41C263.96 158.999 263.451 158.794 262.807 158.794C262.144 158.794 261.617 159.009 261.225 159.438C260.833 159.858 260.637 160.469 260.637 161.272V165.5H259.363V157.828H260.637V158.934C260.889 158.533 261.225 158.225 261.645 158.01C262.074 157.795 262.546 157.688 263.059 157.688C263.703 157.688 264.272 157.833 264.767 158.122C265.262 158.411 265.63 158.836 265.873 159.396C266.088 158.855 266.442 158.435 266.937 158.136C267.432 157.837 267.982 157.688 268.589 157.688ZM273.311 161.636C273.311 160.852 273.47 160.166 273.787 159.578C274.104 158.981 274.538 158.519 275.089 158.192C275.649 157.865 276.27 157.702 276.951 157.702C277.623 157.702 278.206 157.847 278.701 158.136C279.196 158.425 279.564 158.789 279.807 159.228V157.828H281.095V165.5H279.807V164.072C279.555 164.52 279.177 164.893 278.673 165.192C278.178 165.481 277.6 165.626 276.937 165.626C276.256 165.626 275.64 165.458 275.089 165.122C274.538 164.786 274.104 164.315 273.787 163.708C273.47 163.101 273.311 162.411 273.311 161.636ZM279.807 161.65C279.807 161.071 279.69 160.567 279.457 160.138C279.224 159.709 278.906 159.382 278.505 159.158C278.113 158.925 277.679 158.808 277.203 158.808C276.727 158.808 276.293 158.92 275.901 159.144C275.509 159.368 275.196 159.695 274.963 160.124C274.73 160.553 274.613 161.057 274.613 161.636C274.613 162.224 274.73 162.737 274.963 163.176C275.196 163.605 275.509 163.937 275.901 164.17C276.293 164.394 276.727 164.506 277.203 164.506C277.679 164.506 278.113 164.394 278.505 164.17C278.906 163.937 279.224 163.605 279.457 163.176C279.69 162.737 279.807 162.229 279.807 161.65ZM288.254 155.14V165.5H286.98V155.14H288.254ZM297.426 161.37C297.426 161.613 297.412 161.869 297.384 162.14H291.252C291.298 162.896 291.555 163.489 292.022 163.918C292.498 164.338 293.072 164.548 293.744 164.548C294.294 164.548 294.752 164.422 295.116 164.17C295.489 163.909 295.75 163.563 295.9 163.134H297.272C297.066 163.871 296.656 164.473 296.04 164.94C295.424 165.397 294.658 165.626 293.744 165.626C293.016 165.626 292.362 165.463 291.784 165.136C291.214 164.809 290.766 164.347 290.44 163.75C290.113 163.143 289.95 162.443 289.95 161.65C289.95 160.857 290.108 160.161 290.426 159.564C290.743 158.967 291.186 158.509 291.756 158.192C292.334 157.865 292.997 157.702 293.744 157.702C294.472 157.702 295.116 157.861 295.676 158.178C296.236 158.495 296.665 158.934 296.964 159.494C297.272 160.045 297.426 160.67 297.426 161.37ZM296.11 161.104C296.11 160.619 296.002 160.203 295.788 159.858C295.573 159.503 295.279 159.237 294.906 159.06C294.542 158.873 294.136 158.78 293.688 158.78C293.044 158.78 292.493 158.985 292.036 159.396C291.588 159.807 291.331 160.376 291.266 161.104H296.11ZM299.765 156.582C299.523 156.582 299.317 156.498 299.149 156.33C298.981 156.162 298.897 155.957 298.897 155.714C298.897 155.471 298.981 155.266 299.149 155.098C299.317 154.93 299.523 154.846 299.765 154.846C299.999 154.846 300.195 154.93 300.353 155.098C300.521 155.266 300.605 155.471 300.605 155.714C300.605 155.957 300.521 156.162 300.353 156.33C300.195 156.498 299.999 156.582 299.765 156.582ZM300.381 157.828V165.5H299.107V157.828H300.381ZM304.107 158.878V163.4C304.107 163.773 304.186 164.039 304.345 164.198C304.503 164.347 304.779 164.422 305.171 164.422H306.109V165.5H304.961C304.251 165.5 303.719 165.337 303.365 165.01C303.01 164.683 302.833 164.147 302.833 163.4V158.878H301.839V157.828H302.833V155.896H304.107V157.828H306.109V158.878H304.107ZM314.456 157.828V165.5H313.182V164.366C312.94 164.758 312.599 165.066 312.16 165.29C311.731 165.505 311.255 165.612 310.732 165.612C310.135 165.612 309.598 165.491 309.122 165.248C308.646 164.996 308.268 164.623 307.988 164.128C307.718 163.633 307.582 163.031 307.582 162.322V157.828H308.842V162.154C308.842 162.91 309.034 163.493 309.416 163.904C309.799 164.305 310.322 164.506 310.984 164.506C311.666 164.506 312.202 164.296 312.594 163.876C312.986 163.456 313.182 162.845 313.182 162.042V157.828H314.456ZM317.881 159.074C318.105 158.635 318.423 158.295 318.833 158.052C319.253 157.809 319.762 157.688 320.359 157.688V159.004H320.023C318.595 159.004 317.881 159.779 317.881 161.328V165.5H316.607V157.828H317.881V159.074ZM321.354 161.636C321.354 160.852 321.513 160.166 321.83 159.578C322.147 158.981 322.581 158.519 323.132 158.192C323.692 157.865 324.313 157.702 324.994 157.702C325.666 157.702 326.249 157.847 326.744 158.136C327.239 158.425 327.607 158.789 327.85 159.228V157.828H329.138V165.5H327.85V164.072C327.598 164.52 327.22 164.893 326.716 165.192C326.221 165.481 325.643 165.626 324.98 165.626C324.299 165.626 323.683 165.458 323.132 165.122C322.581 164.786 322.147 164.315 321.83 163.708C321.513 163.101 321.354 162.411 321.354 161.636ZM327.85 161.65C327.85 161.071 327.733 160.567 327.5 160.138C327.267 159.709 326.949 159.382 326.548 159.158C326.156 158.925 325.722 158.808 325.246 158.808C324.77 158.808 324.336 158.92 323.944 159.144C323.552 159.368 323.239 159.695 323.006 160.124C322.773 160.553 322.656 161.057 322.656 161.636C322.656 162.224 322.773 162.737 323.006 163.176C323.239 163.605 323.552 163.937 323.944 164.17C324.336 164.394 324.77 164.506 325.246 164.506C325.722 164.506 326.156 164.394 326.548 164.17C326.949 163.937 327.267 163.605 327.5 163.176C327.733 162.737 327.85 162.229 327.85 161.65ZM333.783 155.616C334.707 155.616 335.454 155.877 336.023 156.4C336.592 156.923 336.877 157.623 336.877 158.5C336.877 159.48 336.574 160.208 335.967 160.684C335.36 161.151 334.539 161.384 333.503 161.384L333.461 162.714H332.355L332.299 160.502H332.705C333.629 160.502 334.352 160.362 334.875 160.082C335.398 159.802 335.659 159.275 335.659 158.5C335.659 157.94 335.491 157.497 335.155 157.17C334.819 156.843 334.366 156.68 333.797 156.68C333.218 156.68 332.761 156.839 332.425 157.156C332.098 157.464 331.935 157.889 331.935 158.43H330.731C330.731 157.87 330.857 157.38 331.109 156.96C331.361 156.531 331.716 156.199 332.173 155.966C332.64 155.733 333.176 155.616 333.783 155.616ZM332.901 165.584C332.658 165.584 332.453 165.5 332.285 165.332C332.117 165.164 332.033 164.959 332.033 164.716C332.033 164.473 332.117 164.268 332.285 164.1C332.453 163.932 332.658 163.848 332.901 163.848C333.134 163.848 333.33 163.932 333.489 164.1C333.657 164.268 333.741 164.473 333.741 164.716C333.741 164.959 333.657 165.164 333.489 165.332C333.33 165.5 333.134 165.584 332.901 165.584Z" fill="white"/>
<rect x="24.5" y="139.5" width="379" height="43" rx="21.5" stroke="white"/>
</g>
<defs>
<filter id="filter0_f_126_4367" x="-21.9932" y="95.4023" width="551.174" height="137.193" filterUnits="userSpaceOnUse" color-interpolation-filters="sRGB">
<feFlood flood-opacity="0" result="BackgroundImageFix"/>
<feBlend mode="normal" in="SourceGraphic" in2="BackgroundImageFix" result="shape"/>
<feGaussianBlur stdDeviation="5.5" result="effect1_foregroundBlur_126_4367"/>
</filter>
<filter id="filter1_f_126_4367" x="-16.7344" y="-50.4043" width="537.102" height="240.66" filterUnits="userSpaceOnUse" color-interpolation-filters="sRGB">
<feFlood flood-opacity="0" result="BackgroundImageFix"/>
<feBlend mode="normal" in="SourceGraphic" in2="BackgroundImageFix" result="shape"/>
<feGaussianBlur stdDeviation="4" result="effect1_foregroundBlur_126_4367"/>
</filter>
<filter id="filter2_f_126_4367" x="-77.0156" y="103.965" width="568.908" height="72.9102" filterUnits="userSpaceOnUse" color-interpolation-filters="sRGB">
<feFlood flood-opacity="0" result="BackgroundImageFix"/>
<feBlend mode="normal" in="SourceGraphic" in2="BackgroundImageFix" result="shape"/>
<feGaussianBlur stdDeviation="9.5" result="effect1_foregroundBlur_126_4367"/>
</filter>
<linearGradient id="paint0_linear_126_4367" x1="178.829" y1="-25.8001" x2="767.418" y2="129.347" gradientUnits="userSpaceOnUse">
<stop stop-color="#002F52"/>
<stop offset="1" stop-color="#326589"/>
</linearGradient>
<linearGradient id="paint1_linear_126_4367" x1="178.829" y1="-25.8001" x2="767.418" y2="129.347" gradientUnits="userSpaceOnUse">
<stop stop-color="#002F52"/>
<stop offset="1" stop-color="#326589"/>
</linearGradient>
<clipPath id="clip0_126_4367">
<rect width="428" height="215" fill="white"/>
</clipPath>
<clipPath id="clip1_126_4367">
<rect width="24" height="24" fill="white" transform="translate(90 149)"/>
</clipPath>
</defs>
</svg>
